<svg width="129" height="40" viewBox="0 0 129 40" fill="none" xmlns="http://www.w3.org/2000/svg">
<path d="M42.4045 21.4667V8H43.6615C44.1907 8 44.6538 8.2 44.9845 8.53333C45.3153 8.86667 45.5138 9.4 45.5138 9.86667V15.8667C47.5645 14 49.2845 13.2667 51.6661 13.2667C56.0984 13.2 60.0015 16.5333 60.3984 21C60.8615 26.3333 56.9584 30.4 51.9307 30.4C46.4399 30.3333 42.4045 26.8667 42.4045 21.4667ZM45.5799 22.5333C45.9107 25.3333 48.5568 27.6 51.3353 27.6667C54.9738 27.7333 57.4215 25.3333 57.4215 21.8C57.4215 18.2667 55.0399 15.9333 51.4676 15.9333C47.6969 15.9333 45.1169 18.6667 45.5799 22.5333Z" fill="white"/>
<path d="M65.6907 13.6V16C67.6754 13.7333 68.8661 13.2 71.1815 13.2C71.8431 13.2 72.5707 13.2666 73.2323 13.3333V16.5333C72.5046 16.3333 71.7769 16.2666 71.0492 16.2666C69.3292 16.2666 67.94 16.8 66.8815 17.8666C65.9554 18.8 65.6907 19.5333 65.6907 20.9333V29.8H62.3831V13.6H65.6907Z" fill="white"/>
<path d="M74.026 18.9333C74.2245 17.3333 74.4891 16.5333 75.1507 15.6666C76.4737 14 78.9214 13.1333 82.3614 13.1333C85.0737 13.1333 87.0583 13.5333 88.4476 14.4666C89.5722 15.2 90.1014 16.3333 90.1014 18.3333V25.5333C90.1014 27.1333 90.4983 27.6666 91.623 27.6666C91.8876 27.6666 92.1522 27.6666 92.3507 27.6V29.8C91.8214 30 91.226 30.0666 90.6307 30.0666C88.5799 30.0666 87.6537 29.4666 86.9922 27.6666C84.9414 29.5333 82.8907 30.3333 79.8476 30.3333C75.8122 30.3333 73.3645 28.4666 73.3645 25.4666C73.3645 24.6 73.563 23.8 74.026 23.1333C74.4891 22.4666 75.1507 21.8666 75.8783 21.5333C77.0691 21 77.7968 20.8666 81.303 20.4666C84.2799 20.2 84.8091 20.1333 85.603 19.8666C86.5291 19.6 86.926 19.0666 86.926 18.2666C86.926 16.5333 85.4707 15.7333 82.4276 15.7333C79.583 15.7333 78.0614 16.2666 77.466 17.8C77.3337 18.2 77.0691 18.4666 76.7383 18.7333C76.4076 18.9333 76.0107 19.0666 75.6137 19.0666L74.026 18.9333ZM87.0583 21.7333C84.9414 22.3333 82.8245 22.7333 80.6414 22.9333C77.7307 23.2 76.8045 23.8 76.8045 25.2666C76.8045 26.9333 78.1276 27.8 80.8399 27.8C83.023 27.8 84.6768 27.2666 85.8676 26.1333C86.7937 25.2666 87.0583 24.6 87.0583 23.0666V21.7333Z" fill="white"/>
<path d="M100.355 29.8H99.4955C99.0985 29.8 98.7678 29.6666 98.437 29.5333C98.1062 29.3333 97.9078 29.0666 97.7093 28.7333L90.6309 13.6H92.6155C93.1447 13.6 93.7401 13.7333 94.2032 14.0666C94.6662 14.4 95.0632 14.8 95.2616 15.3333L99.9586 26.2L104.854 15.2666C105.119 14.7333 105.449 14.3333 105.912 14.0666C106.375 13.8 106.905 13.6 107.5 13.6H109.286L102.009 28.7333C101.877 29.0666 101.612 29.3333 101.282 29.5333C101.017 29.6666 100.686 29.8 100.355 29.8Z" fill="white"/>
<path d="M111.535 22.6C111.866 25.7333 114.314 27.6666 117.952 27.6666C120.003 27.6666 121.525 27.0666 122.517 25.8C122.782 25.4666 123.112 25.2 123.509 25C123.906 24.8 124.369 24.7333 124.766 24.7333H126.685C125.031 28.4 122.054 30.2 117.622 30.2C112.065 30.2 108.36 26.8 108.36 21.7333C108.36 16.6666 112.197 13.1333 117.688 13.1333C121.657 13.1333 124.899 14.9333 126.155 18C126.751 19.4 126.949 20.6 126.949 22.6666L111.535 22.6ZM123.642 20.1333C122.914 17.2666 120.731 15.6666 117.688 15.6666C114.645 15.6666 112.462 17.2666 111.668 20.1333H123.642Z" fill="white"/>
<path d="M32.6138 9.6L33.4739 7.66667C33.54 7.53333 33.54 7.4 33.54 7.26667C33.54 7.13333 33.4739 7 33.3415 6.93333L31.0262 4.6C30.4969 4.06667 29.9015 3.73333 29.24 3.6C28.5785 3.46667 27.8508 3.46667 27.1892 3.73333L26.5277 3.93333L23.0215 0.0666667L16.9354 0H16.8692L10.8492 0.0666667L7.34308 3.93333L6.68154 3.73333C6.02 3.46667 5.29231 3.46667 4.63077 3.6C3.90308 3.73333 3.30769 4.13333 2.77846 4.66667L0.396923 7.06667C0.330769 7.13333 0.264615 7.26667 0.264615 7.33333C0.264615 7.46667 0.264615 7.53333 0.330769 7.66667L1.19077 9.66667L0 13L0.793846 16L4.36615 29.7333C4.76308 31.3333 5.75539 32.7333 7.07846 33.6667C7.07846 33.6667 11.4446 36.7333 15.7446 39.6C16.0754 39.8667 16.5385 40 16.9354 40C17.3985 40 17.7954 39.8667 18.1262 39.6C22.9554 36.4 26.7923 33.6667 26.7923 33.6667C28.1154 32.7333 29.0415 31.3333 29.5046 29.7333L33.0769 16L33.8708 13L32.6138 9.6ZM22.36 27.3333C22.2938 27.4 22.2938 27.4667 22.2277 27.4667L20.5077 28.7333C20.1769 28.9333 19.7138 29.3333 19.4492 29.6L18.9862 30L17.9938 30.8667L17.4646 31.3333C17.3323 31.4667 17.1338 31.5333 16.9354 31.5333C16.7369 31.5333 16.6046 31.4667 16.4062 31.3333L15.9431 30.9333C15.6785 30.6667 15.2154 30.2667 14.9508 30.0667L14.5538 29.6C14.2892 29.3333 13.8262 29 13.4954 28.7333L11.7754 27.5333C11.7092 27.5333 11.6431 27.4667 11.6431 27.4C11.5769 27.3333 11.5769 27.2667 11.5769 27.2C11.5769 27.1333 11.5769 27.0667 11.6431 27C11.7092 26.9333 11.7754 26.8667 11.8415 26.8667L13.8262 25.8C14.1569 25.6667 14.6862 25.4 15.0169 25.2667L16.0754 24.8C16.2738 24.6667 16.5385 24.6 16.8031 24.5333H17.2C17.4646 24.6 17.6631 24.6667 17.9277 24.8L18.9862 25.2667C19.3169 25.4 19.8462 25.6667 20.1769 25.8L22.1615 26.8C22.2277 26.8 22.2938 26.8667 22.36 26.9333C22.4262 27 22.4262 27.0667 22.4262 27.1333C22.4262 27.2 22.4262 27.2667 22.36 27.3333ZM30.0339 13.6667C30.0339 13.8 29.9677 13.8667 29.9015 14C29.7031 14.2667 29.3062 14.7333 29.0415 15L25.1385 19.2C25.0062 19.3333 24.94 19.5333 24.8738 19.7333C24.8077 19.9333 24.8738 20.1333 24.94 20.3333L25.6015 21.8667C25.7339 22.2667 25.7339 22.7333 25.6015 23.1333L25.4692 23.4667C25.2708 24.0667 24.8738 24.5333 24.4108 24.9333L23.8154 25.4667C23.6831 25.6 23.4846 25.6667 23.2862 25.6667C23.0877 25.6667 22.8892 25.6667 22.6908 25.6L20.5077 24.5333C20.1108 24.3333 19.7138 24.0667 19.3831 23.8L17.6631 22.2C17.5969 22.1333 17.5308 22.0667 17.5308 22C17.5308 21.9333 17.4646 21.8 17.4646 21.7333C17.4646 21.6667 17.4646 21.5333 17.5308 21.4667C17.5969 21.4 17.5969 21.2667 17.6631 21.2L21.5662 18.5333C21.6985 18.4 21.8308 18.2667 21.8969 18.0667C21.9631 17.8667 21.8969 17.6667 21.8308 17.5333L20.3092 14.6667C20.1108 14.3333 20.1108 13.8667 20.2431 13.5333C20.4415 13.2 20.7062 12.8667 21.1031 12.7333L25.8662 10.9333C26.1969 10.8 26.1969 10.6667 25.8 10.6L23.0215 10.3333C22.5585 10.3333 22.1615 10.3333 21.6985 10.4667L19.2508 11.1333C19.0523 11.2 18.92 11.3333 18.8538 11.4667C18.7877 11.6 18.7215 11.8 18.7215 12L19.7138 17.2667C19.78 17.5333 19.78 17.8667 19.78 18.1333C19.7138 18.2667 19.3831 18.4 19.0523 18.5333L17.7292 18.8667C17.2662 18.9333 16.8692 18.9333 16.4062 18.8667L14.9508 18.5333C14.62 18.4667 14.2892 18.2667 14.2231 18.1333C14.2231 17.8667 14.2231 17.5333 14.2892 17.2667L15.2815 12C15.2815 11.8 15.2815 11.6667 15.1492 11.4667C15.0831 11.3333 14.8846 11.2 14.7523 11.1333L12.3046 10.4667C11.9077 10.3333 11.4446 10.3333 10.9815 10.3333L8.20308 10.6C7.80615 10.6 7.80615 10.8 8.13692 10.9333L12.9 12.7333C13.2969 12.8667 13.5615 13.2 13.76 13.5333C13.8262 13.7333 13.8262 13.9333 13.8262 14.1333C13.8262 14.3333 13.76 14.5333 13.6938 14.6667L12.1723 17.5333C12.1062 17.6667 12.04 17.8667 12.1062 18.0667C12.1723 18.2667 12.2385 18.4 12.4369 18.5333L16.34 21.2C16.4062 21.2667 16.4723 21.3333 16.4723 21.4667C16.5385 21.5333 16.5385 21.6667 16.5385 21.7333C16.5385 21.8 16.5385 21.9333 16.4723 22C16.4062 22.0667 16.4062 22.1333 16.34 22.2L14.62 23.8C14.2892 24.0667 13.8923 24.3333 13.4954 24.5333L11.3123 25.6C11.1138 25.6667 10.9154 25.7333 10.7169 25.6667C10.5185 25.6667 10.32 25.6 10.1877 25.4667L9.59231 24.9333C9.12923 24.5333 8.73231 24.0667 8.53385 23.4667L8.40154 23.1333C8.26923 22.7333 8.26923 22.2667 8.40154 21.8667L9.06308 20.3333C9.12923 20.1333 9.12923 19.9333 9.12923 19.7333C9.06308 19.5333 8.99692 19.3333 8.86462 19.2L4.96154 15C4.69692 14.7333 4.3 14.2667 4.10154 14C4.03539 13.8667 4.03539 13.8 3.96923 13.6667L3.90308 13.4667C3.90308 13.1333 3.96923 12.7333 4.03539 12.4C4.16769 12.0667 4.36615 11.8 4.56462 11.5333L5.68923 9.86667C5.88769 9.53333 6.28462 9.06667 6.48308 8.8L7.93846 6.93333C8.07077 6.73333 8.20308 6.6 8.40154 6.4C8.40154 6.4 8.73231 6.46667 9.06308 6.53333L11.3123 7L12.3046 7.2C12.6354 7.2 12.9662 7.2 13.2969 7.06667L15.0831 6.46667C15.4138 6.33333 16.0092 6.2 16.34 6.13333C16.7369 6.06667 17.0677 6.06667 17.4646 6.13333C17.7954 6.2 18.3908 6.4 18.7215 6.46667L20.5077 7.06667C20.8385 7.2 21.1692 7.2 21.5 7.2L22.4923 7L24.7415 6.53333C25.0723 6.46667 25.4031 6.4 25.4031 6.4C25.5354 6.53333 25.7338 6.73333 25.8662 6.93333L27.3877 8.8C27.6523 9.06667 27.9831 9.6 28.1815 9.86667L29.3062 11.5333C29.5708 11.9333 29.7692 12.3333 29.9677 12.7333C29.9677 13 30.0339 13.2 30.0339 13.4667V13.6667Z" fill="white"/>
<path d="M128.471 13.8C128.471 14.0667 128.405 14.3333 128.272 14.6C128.14 14.8 127.941 15 127.677 15.1333C127.412 15.2667 127.148 15.2667 126.883 15.2C126.618 15.1333 126.354 15 126.155 14.8C125.957 14.6 125.825 14.3333 125.758 14.0667C125.692 13.8 125.758 13.5333 125.825 13.2667C125.957 13 126.089 12.8 126.354 12.6667C126.552 12.5333 126.817 12.4667 127.148 12.4667C127.346 12.4667 127.478 12.4667 127.677 12.5333C127.809 12.6 128.008 12.6667 128.14 12.8C128.272 12.9333 128.338 13.0667 128.405 13.2667C128.471 13.4 128.471 13.6 128.471 13.8ZM126.089 13.8C126.089 13.9333 126.089 14.0667 126.155 14.2C126.221 14.3333 126.288 14.4667 126.354 14.5333C126.42 14.6 126.552 14.7333 126.685 14.7333C126.817 14.8 126.949 14.8 127.081 14.8C127.214 14.8 127.346 14.8 127.478 14.7333C127.611 14.6667 127.743 14.6 127.809 14.5333C127.875 14.4667 128.008 14.3333 128.008 14.2C128.074 14.0667 128.074 13.9333 128.074 13.8C128.074 13.6667 128.074 13.5333 128.008 13.4C127.941 13.2667 127.875 13.1333 127.809 13.0667C127.743 12.9333 127.611 12.8667 127.478 12.8C127.346 12.7333 127.214 12.7333 127.081 12.7333C126.949 12.7333 126.817 12.7333 126.685 12.8C126.552 12.8667 126.42 12.9333 126.354 13.0667C126.288 13.2 126.155 13.2667 126.155 13.4C126.155 13.5333 126.089 13.6667 126.089 13.8ZM126.949 14.4667H126.618V13.1333C126.817 13.1333 126.949 13.0667 127.148 13.0667C127.28 13.0667 127.478 13.0667 127.611 13.1333C127.677 13.2 127.677 13.2 127.677 13.2667C127.677 13.3333 127.743 13.4 127.743 13.4C127.743 13.4667 127.677 13.5333 127.677 13.6C127.611 13.6667 127.545 13.6667 127.478 13.7333C127.545 13.7333 127.611 13.8 127.611 13.8667C127.677 13.9333 127.677 14 127.677 14.0667C127.677 14.2 127.743 14.2667 127.743 14.4H127.412C127.346 14.2667 127.346 14.2 127.28 14.0667C127.28 13.9333 127.148 13.8667 127.015 13.8667H126.883L126.949 14.4667ZM126.949 13.7333H127.081C127.28 13.7333 127.412 13.6667 127.412 13.5333C127.412 13.4 127.346 13.3333 127.148 13.3333C127.081 13.3333 127.015 13.3333 126.949 13.3333V13.7333Z" fill="white"/>
</svg>
