<svg width="83" height="41" viewBox="0 0 83 41" fill="none" xmlns="http://www.w3.org/2000/svg">
<g clip-path="url(#clip0_18_52)">
<path d="M8.57213 25.8985L11.7697 22.6185L7.82377 17.2885L2.78934 10.1818C0.952459 13.2568 0 16.8785 0 20.5001C0 26.7868 2.78934 32.3218 7.21148 36.0801L13.6066 31.5701C11.3615 30.2035 9.66066 28.2901 8.57213 25.8985ZM15.0352 8.61012L18.3008 11.8218L23.6074 7.85846L30.6828 2.80179C27.6213 0.956789 24.0156 0.00012207 20.4098 0.00012207C14.2189 0.00012207 8.64016 2.80179 4.89836 7.24346L9.38852 13.6668C10.7492 11.4118 12.6541 9.70346 15.0352 8.61012ZM29.05 18.3818L32.9959 23.7118L38.0303 30.8185C39.8672 27.7435 40.8197 24.1218 40.8197 20.5001C40.8197 14.2818 38.0303 8.67846 33.6082 4.92012L27.2131 9.43012C29.3902 10.7968 31.091 12.7785 32.1795 15.1018L29.05 18.3818ZM35.9213 33.7568L31.4311 27.3335C30.0705 29.5201 28.0975 31.2285 25.7844 32.3218L22.5189 29.1101L17.2123 33.0735L10.1369 38.1301C13.1984 40.0435 16.8041 41.0001 20.4098 41.0001C26.6689 41.0001 32.1795 38.1985 35.9213 33.7568Z" fill="white"/>
<path fill-rule="evenodd" clip-rule="evenodd" d="M52.7935 20.1585C52.7935 13.5301 55.5148 10.2501 59.8689 10.2501C64.1549 10.2501 66.9443 13.5985 66.9443 20.1585C66.9443 26.7868 64.0869 30.0668 59.8689 30.0668C55.5828 30.0668 52.7935 26.7868 52.7935 20.1585ZM59.8008 12.3685C56.6713 12.3685 55.1746 15.2385 55.1746 20.1585C55.1746 22.4818 55.5148 24.2585 56.1951 25.5568L62.318 13.1885C61.5697 12.6418 60.7533 12.3685 59.8008 12.3685ZM57.4197 27.1968C58.1 27.7435 58.9164 28.0168 59.8689 28.0168C62.9984 28.0168 64.5631 25.0785 64.5631 20.2268C64.5631 17.9718 64.223 16.1951 63.5426 14.8285L57.4197 27.1968ZM82.3197 15.9901L78.3738 22.6185L82.6598 29.7251H80.0066L76.5369 23.9851H75.5844L72.0467 29.7251H69.4615L73.7476 22.6868L69.8697 15.9901H72.3869L75.5844 21.4568H76.6049L79.8705 15.9901H82.3197Z" fill="white"/>
</g>
<defs>
<clipPath id="clip0_18_52">
<rect width="83" height="41" fill="white" transform="translate(0 0.00012207)"/>
</clipPath>
</defs>
</svg>
