<svg width="129" height="40" viewBox="0 0 129 40" fill="none" xmlns="http://www.w3.org/2000/svg">
<path d="M42.4045 21.4669V8.00024H43.6615C44.1907 8.00024 44.6538 8.20024 44.9845 8.53358C45.3153 8.86691 45.5138 9.40024 45.5138 9.86691V15.8669C47.5645 14.0002 49.2845 13.2669 51.6661 13.2669C56.0984 13.2002 60.0015 16.5336 60.3984 21.0002C60.8615 26.3336 56.9584 30.4002 51.9307 30.4002C46.4399 30.3336 42.4045 26.8669 42.4045 21.4669ZM45.5799 22.5336C45.9107 25.3336 48.5568 27.6002 51.3353 27.6669C54.9738 27.7336 57.4215 25.3336 57.4215 21.8002C57.4215 18.2669 55.0399 15.9336 51.4676 15.9336C47.6969 15.9336 45.1169 18.6669 45.5799 22.5336Z" fill="white"/>
<path d="M65.6907 13.6002V16.0002C67.6754 13.7335 68.8661 13.2002 71.1815 13.2002C71.8431 13.2002 72.5707 13.2669 73.2323 13.3335V16.5335C72.5046 16.3335 71.7769 16.2669 71.0492 16.2669C69.3292 16.2669 67.94 16.8002 66.8815 17.8669C65.9554 18.8002 65.6907 19.5335 65.6907 20.9335V29.8002H62.3831V13.6002H65.6907Z" fill="white"/>
<path d="M74.026 18.9335C74.2245 17.3335 74.4891 16.5335 75.1507 15.6669C76.4737 14.0002 78.9214 13.1335 82.3614 13.1335C85.0737 13.1335 87.0583 13.5335 88.4476 14.4669C89.5722 15.2002 90.1014 16.3335 90.1014 18.3335V25.5335C90.1014 27.1335 90.4983 27.6669 91.623 27.6669C91.8876 27.6669 92.1522 27.6669 92.3507 27.6002V29.8002C91.8214 30.0002 91.226 30.0669 90.6307 30.0669C88.5799 30.0669 87.6537 29.4669 86.9922 27.6669C84.9414 29.5335 82.8907 30.3335 79.8476 30.3335C75.8122 30.3335 73.3645 28.4669 73.3645 25.4669C73.3645 24.6002 73.563 23.8002 74.026 23.1335C74.4891 22.4669 75.1507 21.8669 75.8783 21.5335C77.0691 21.0002 77.7968 20.8669 81.303 20.4669C84.2799 20.2002 84.8091 20.1335 85.603 19.8669C86.5291 19.6002 86.926 19.0669 86.926 18.2669C86.926 16.5335 85.4707 15.7335 82.4276 15.7335C79.583 15.7335 78.0614 16.2669 77.466 17.8002C77.3337 18.2002 77.0691 18.4669 76.7383 18.7335C76.4076 18.9335 76.0107 19.0669 75.6137 19.0669L74.026 18.9335ZM87.0583 21.7335C84.9414 22.3335 82.8245 22.7335 80.6414 22.9335C77.7307 23.2002 76.8045 23.8002 76.8045 25.2669C76.8045 26.9335 78.1276 27.8002 80.8399 27.8002C83.023 27.8002 84.6768 27.2669 85.8676 26.1335C86.7937 25.2669 87.0583 24.6002 87.0583 23.0669V21.7335Z" fill="white"/>
<path d="M100.355 29.8003H99.4955C99.0985 29.8003 98.7678 29.667 98.437 29.5337C98.1062 29.3337 97.9078 29.067 97.7093 28.7337L90.6309 13.6003H92.6155C93.1447 13.6003 93.7401 13.7337 94.2032 14.067C94.6662 14.4003 95.0632 14.8003 95.2616 15.3337L99.9586 26.2003L104.854 15.267C105.119 14.7337 105.449 14.3337 105.912 14.067C106.375 13.8003 106.905 13.6003 107.5 13.6003H109.286L102.009 28.7337C101.877 29.067 101.612 29.3337 101.282 29.5337C101.017 29.667 100.686 29.8003 100.355 29.8003Z" fill="white"/>
<path d="M111.535 22.6002C111.866 25.7335 114.314 27.6669 117.952 27.6669C120.003 27.6669 121.525 27.0669 122.517 25.8002C122.782 25.4669 123.112 25.2002 123.509 25.0002C123.906 24.8002 124.369 24.7335 124.766 24.7335H126.685C125.031 28.4002 122.054 30.2002 117.622 30.2002C112.065 30.2002 108.36 26.8002 108.36 21.7335C108.36 16.6669 112.197 13.1335 117.688 13.1335C121.657 13.1335 124.899 14.9335 126.155 18.0002C126.751 19.4002 126.949 20.6002 126.949 22.6669L111.535 22.6002ZM123.642 20.1335C122.914 17.2669 120.731 15.6669 117.688 15.6669C114.645 15.6669 112.462 17.2669 111.668 20.1335H123.642Z" fill="white"/>
<path d="M32.6138 9.60024L33.4739 7.66691C33.54 7.53358 33.54 7.40024 33.54 7.26691C33.54 7.13358 33.4739 7.00024 33.3415 6.93358L31.0262 4.60024C30.4969 4.06691 29.9015 3.73358 29.24 3.60024C28.5785 3.46691 27.8508 3.46691 27.1892 3.73358L26.5277 3.93358L23.0215 0.0669108L16.9354 0.000244141H16.8692L10.8492 0.0669108L7.34308 3.93358L6.68154 3.73358C6.02 3.46691 5.29231 3.46691 4.63077 3.60024C3.90308 3.73358 3.30769 4.13358 2.77846 4.66691L0.396923 7.06691C0.330769 7.13358 0.264615 7.26691 0.264615 7.33358C0.264615 7.46691 0.264615 7.53358 0.330769 7.66691L1.19077 9.66691L0 13.0002L0.793846 16.0002L4.36615 29.7336C4.76308 31.3336 5.75539 32.7336 7.07846 33.6669C7.07846 33.6669 11.4446 36.7336 15.7446 39.6002C16.0754 39.8669 16.5385 40.0002 16.9354 40.0002C17.3985 40.0002 17.7954 39.8669 18.1262 39.6002C22.9554 36.4002 26.7923 33.6669 26.7923 33.6669C28.1154 32.7336 29.0415 31.3336 29.5046 29.7336L33.0769 16.0002L33.8708 13.0002L32.6138 9.60024ZM22.36 27.3336C22.2938 27.4002 22.2938 27.4669 22.2277 27.4669L20.5077 28.7336C20.1769 28.9336 19.7138 29.3336 19.4492 29.6002L18.9862 30.0002L17.9938 30.8669L17.4646 31.3336C17.3323 31.4669 17.1338 31.5336 16.9354 31.5336C16.7369 31.5336 16.6046 31.4669 16.4062 31.3336L15.9431 30.9336C15.6785 30.6669 15.2154 30.2669 14.9508 30.0669L14.5538 29.6002C14.2892 29.3336 13.8262 29.0002 13.4954 28.7336L11.7754 27.5336C11.7092 27.5336 11.6431 27.4669 11.6431 27.4002C11.5769 27.3336 11.5769 27.2669 11.5769 27.2002C11.5769 27.1336 11.5769 27.0669 11.6431 27.0002C11.7092 26.9336 11.7754 26.8669 11.8415 26.8669L13.8262 25.8002C14.1569 25.6669 14.6862 25.4002 15.0169 25.2669L16.0754 24.8002C16.2738 24.6669 16.5385 24.6002 16.8031 24.5336H17.2C17.4646 24.6002 17.6631 24.6669 17.9277 24.8002L18.9862 25.2669C19.3169 25.4002 19.8462 25.6669 20.1769 25.8002L22.1615 26.8002C22.2277 26.8002 22.2938 26.8669 22.36 26.9336C22.4262 27.0002 22.4262 27.0669 22.4262 27.1336C22.4262 27.2002 22.4262 27.2669 22.36 27.3336ZM30.0339 13.6669C30.0339 13.8002 29.9677 13.8669 29.9015 14.0002C29.7031 14.2669 29.3062 14.7336 29.0415 15.0002L25.1385 19.2002C25.0062 19.3336 24.94 19.5336 24.8738 19.7336C24.8077 19.9336 24.8738 20.1336 24.94 20.3336L25.6015 21.8669C25.7339 22.2669 25.7339 22.7336 25.6015 23.1336L25.4692 23.4669C25.2708 24.0669 24.8738 24.5336 24.4108 24.9336L23.8154 25.4669C23.6831 25.6002 23.4846 25.6669 23.2862 25.6669C23.0877 25.6669 22.8892 25.6669 22.6908 25.6002L20.5077 24.5336C20.1108 24.3336 19.7138 24.0669 19.3831 23.8002L17.6631 22.2002C17.5969 22.1336 17.5308 22.0669 17.5308 22.0002C17.5308 21.9336 17.4646 21.8002 17.4646 21.7336C17.4646 21.6669 17.4646 21.5336 17.5308 21.4669C17.5969 21.4002 17.5969 21.2669 17.6631 21.2002L21.5662 18.5336C21.6985 18.4002 21.8308 18.2669 21.8969 18.0669C21.9631 17.8669 21.8969 17.6669 21.8308 17.5336L20.3092 14.6669C20.1108 14.3336 20.1108 13.8669 20.2431 13.5336C20.4415 13.2002 20.7062 12.8669 21.1031 12.7336L25.8662 10.9336C26.1969 10.8002 26.1969 10.6669 25.8 10.6002L23.0215 10.3336C22.5585 10.3336 22.1615 10.3336 21.6985 10.4669L19.2508 11.1336C19.0523 11.2002 18.92 11.3336 18.8538 11.4669C18.7877 11.6002 18.7215 11.8002 18.7215 12.0002L19.7138 17.2669C19.78 17.5336 19.78 17.8669 19.78 18.1336C19.7138 18.2669 19.3831 18.4002 19.0523 18.5336L17.7292 18.8669C17.2662 18.9336 16.8692 18.9336 16.4062 18.8669L14.9508 18.5336C14.62 18.4669 14.2892 18.2669 14.2231 18.1336C14.2231 17.8669 14.2231 17.5336 14.2892 17.2669L15.2815 12.0002C15.2815 11.8002 15.2815 11.6669 15.1492 11.4669C15.0831 11.3336 14.8846 11.2002 14.7523 11.1336L12.3046 10.4669C11.9077 10.3336 11.4446 10.3336 10.9815 10.3336L8.20308 10.6002C7.80615 10.6002 7.80615 10.8002 8.13692 10.9336L12.9 12.7336C13.2969 12.8669 13.5615 13.2002 13.76 13.5336C13.8262 13.7336 13.8262 13.9336 13.8262 14.1336C13.8262 14.3336 13.76 14.5336 13.6938 14.6669L12.1723 17.5336C12.1062 17.6669 12.04 17.8669 12.1062 18.0669C12.1723 18.2669 12.2385 18.4002 12.4369 18.5336L16.34 21.2002C16.4062 21.2669 16.4723 21.3336 16.4723 21.4669C16.5385 21.5336 16.5385 21.6669 16.5385 21.7336C16.5385 21.8002 16.5385 21.9336 16.4723 22.0002C16.4062 22.0669 16.4062 22.1336 16.34 22.2002L14.62 23.8002C14.2892 24.0669 13.8923 24.3336 13.4954 24.5336L11.3123 25.6002C11.1138 25.6669 10.9154 25.7336 10.7169 25.6669C10.5185 25.6669 10.32 25.6002 10.1877 25.4669L9.59231 24.9336C9.12923 24.5336 8.73231 24.0669 8.53385 23.4669L8.40154 23.1336C8.26923 22.7336 8.26923 22.2669 8.40154 21.8669L9.06308 20.3336C9.12923 20.1336 9.12923 19.9336 9.12923 19.7336C9.06308 19.5336 8.99692 19.3336 8.86462 19.2002L4.96154 15.0002C4.69692 14.7336 4.3 14.2669 4.10154 14.0002C4.03539 13.8669 4.03539 13.8002 3.96923 13.6669L3.90308 13.4669C3.90308 13.1336 3.96923 12.7336 4.03539 12.4002C4.16769 12.0669 4.36615 11.8002 4.56462 11.5336L5.68923 9.86691C5.88769 9.53358 6.28462 9.06691 6.48308 8.80024L7.93846 6.93358C8.07077 6.73358 8.20308 6.60024 8.40154 6.40024C8.40154 6.40024 8.73231 6.46691 9.06308 6.53358L11.3123 7.00024L12.3046 7.20024C12.6354 7.20024 12.9662 7.20024 13.2969 7.06691L15.0831 6.46691C15.4138 6.33358 16.0092 6.20024 16.34 6.13358C16.7369 6.06691 17.0677 6.06691 17.4646 6.13358C17.7954 6.20024 18.3908 6.40024 18.7215 6.46691L20.5077 7.06691C20.8385 7.20024 21.1692 7.20024 21.5 7.20024L22.4923 7.00024L24.7415 6.53358C25.0723 6.46691 25.4031 6.40024 25.4031 6.40024C25.5354 6.53358 25.7338 6.73358 25.8662 6.93358L27.3877 8.80024C27.6523 9.06691 27.9831 9.60024 28.1815 9.86691L29.3062 11.5336C29.5708 11.9336 29.7692 12.3336 29.9677 12.7336C29.9677 13.0002 30.0339 13.2002 30.0339 13.4669V13.6669Z" fill="white"/>
<path d="M128.471 13.8004C128.471 14.067 128.405 14.3337 128.272 14.6004C128.14 14.8004 127.941 15.0004 127.677 15.1337C127.412 15.267 127.148 15.267 126.883 15.2004C126.618 15.1337 126.354 15.0004 126.155 14.8004C125.957 14.6004 125.825 14.3337 125.758 14.067C125.692 13.8004 125.758 13.5337 125.825 13.267C125.957 13.0004 126.089 12.8004 126.354 12.667C126.552 12.5337 126.817 12.467 127.148 12.467C127.346 12.467 127.478 12.467 127.677 12.5337C127.809 12.6004 128.008 12.667 128.14 12.8004C128.272 12.9337 128.338 13.067 128.405 13.267C128.471 13.4004 128.471 13.6004 128.471 13.8004ZM126.089 13.8004C126.089 13.9337 126.089 14.067 126.155 14.2004C126.221 14.3337 126.288 14.467 126.354 14.5337C126.42 14.6004 126.552 14.7337 126.685 14.7337C126.817 14.8004 126.949 14.8004 127.081 14.8004C127.214 14.8004 127.346 14.8004 127.478 14.7337C127.611 14.667 127.743 14.6004 127.809 14.5337C127.875 14.467 128.008 14.3337 128.008 14.2004C128.074 14.067 128.074 13.9337 128.074 13.8004C128.074 13.667 128.074 13.5337 128.008 13.4004C127.941 13.267 127.875 13.1337 127.809 13.067C127.743 12.9337 127.611 12.867 127.478 12.8004C127.346 12.7337 127.214 12.7337 127.081 12.7337C126.949 12.7337 126.817 12.7337 126.685 12.8004C126.552 12.867 126.42 12.9337 126.354 13.067C126.288 13.2004 126.155 13.267 126.155 13.4004C126.155 13.5337 126.089 13.667 126.089 13.8004ZM126.949 14.467H126.618V13.1337C126.817 13.1337 126.949 13.067 127.148 13.067C127.28 13.067 127.478 13.067 127.611 13.1337C127.677 13.2004 127.677 13.2004 127.677 13.267C127.677 13.3337 127.743 13.4004 127.743 13.4004C127.743 13.467 127.677 13.5337 127.677 13.6004C127.611 13.667 127.545 13.667 127.478 13.7337C127.545 13.7337 127.611 13.8004 127.611 13.867C127.677 13.9337 127.677 14.0004 127.677 14.067C127.677 14.2004 127.743 14.267 127.743 14.4004H127.412C127.346 14.267 127.346 14.2004 127.28 14.067C127.28 13.9337 127.148 13.867 127.015 13.867H126.883L126.949 14.467ZM126.949 13.7337H127.081C127.28 13.7337 127.412 13.667 127.412 13.5337C127.412 13.4004 127.346 13.3337 127.148 13.3337C127.081 13.3337 127.015 13.3337 126.949 13.3337V13.7337Z" fill="white"/>
</svg>
