<svg width="122" height="43" viewBox="0 0 122 43" fill="none" xmlns="http://www.w3.org/2000/svg">
<path d="M52.9624 10.6787H57.5553V29.097H62.1483V6.09204H57.5553C55.0436 6.09204 52.9624 8.17037 52.9624 10.6787Z" fill="white"/>
<path d="M66.7412 29.097H71.3342V19.852C71.3342 17.3437 69.253 15.2654 66.7412 15.2654V29.097Z" fill="white"/>
<path d="M75.9988 15.2654V29.0254H80.5917V19.852H85.1847V24.4387C85.1847 26.947 87.2658 29.0254 89.7776 29.0254V19.852C89.7776 17.3437 87.6964 15.2654 85.1847 15.2654H75.9988Z" fill="white"/>
<path d="M117.407 15.2654H112.814V10.6787C112.814 8.17037 110.733 6.09204 108.221 6.09204V24.5104H99.0353V19.9237H103.628V15.337H99.0353C96.5236 15.337 94.4424 17.4154 94.4424 19.9237V24.5104C94.4424 27.0187 96.5236 29.097 99.0353 29.097H112.814V19.852H117.407V24.4387C117.407 26.947 119.488 29.0254 122 29.0254V19.852C122 17.3437 119.919 15.2654 117.407 15.2654Z" fill="white"/>
<path d="M66.7412 10.6787H71.3342C71.3342 8.17037 69.253 6.09204 66.7412 6.09204V10.6787Z" fill="white"/>
<path d="M59.4213 36.837H57.4836V33.7554H59.3495V34.257H58.1295V35.0454H59.2778V35.547H58.1295V36.3354H59.4931V36.837H59.4213Z" fill="white"/>
<path d="M67.8177 33.7554H68.4636L67.3871 35.2604L68.5353 36.837H67.8895L67.0283 35.6904L66.1671 36.837H65.5212L66.6695 35.2604L65.593 33.7554H66.2389L67.0283 34.902L67.8177 33.7554Z" fill="white"/>
<path d="M76.7881 36.1204L77.0034 36.5504C76.9317 36.622 76.7881 36.7654 76.5728 36.837C76.3576 36.9087 76.214 36.9087 75.9987 36.9087C75.4964 36.9087 75.1376 36.7654 74.7787 36.4787C74.4917 36.192 74.3481 35.8337 74.3481 35.332C74.3481 34.902 74.4917 34.472 74.7787 34.1854C75.0658 33.8987 75.4964 33.7554 75.9987 33.7554C76.4293 33.7554 76.7164 33.827 77.0034 34.042L76.7164 34.472C76.5011 34.3287 76.2858 34.257 75.9987 34.257C75.7117 34.257 75.4246 34.3287 75.2093 34.5437C74.994 34.7587 74.9223 34.9737 74.9223 35.332C74.9223 35.6187 74.994 35.9054 75.2093 36.1204C75.4246 36.3354 75.7117 36.407 75.9987 36.407C76.3576 36.407 76.5729 36.2637 76.7881 36.1204Z" fill="white"/>
<path d="M85.9741 36.837H85.4V35.4754H83.893V36.837H83.3188V33.7554H83.893V35.0454H85.4V33.7554H85.9741V36.837Z" fill="white"/>
<path d="M92.7201 36.8372H92.146L93.5095 33.6838H94.0119L95.3754 36.8372H94.8013L94.4425 36.0488H93.0789L92.7201 36.8372ZM94.2272 35.5472L93.7248 34.4005L93.2225 35.5472H94.2272Z" fill="white"/>
<path d="M104.346 33.7554V36.837H103.915L102.121 34.687V36.837H101.619V33.7554H102.049L103.844 35.9054V33.7554H104.346Z" fill="white"/>
<path d="M113.101 35.6904H112.312V35.1887H113.604V36.4787C113.46 36.622 113.316 36.6937 113.029 36.7654C112.814 36.837 112.599 36.9087 112.384 36.9087C111.881 36.9087 111.451 36.7654 111.163 36.4787C110.876 36.192 110.733 35.8337 110.733 35.332C110.733 34.902 110.876 34.472 111.163 34.1854C111.451 33.8987 111.809 33.7554 112.312 33.7554C112.742 33.7554 113.101 33.827 113.316 34.042L113.101 34.472C113.029 34.4004 112.886 34.3287 112.814 34.3287C112.671 34.257 112.527 34.257 112.384 34.257C112.096 34.257 111.809 34.3287 111.594 34.5437C111.379 34.7587 111.307 34.9737 111.307 35.332C111.307 35.6904 111.379 35.9054 111.594 36.1204C111.809 36.3354 112.025 36.407 112.384 36.407C112.527 36.407 112.599 36.407 112.742 36.3354C112.886 36.2637 112.958 36.2637 113.029 36.192L113.101 35.6904Z" fill="white"/>
<path d="M122 36.837H120.062V33.7554H121.928V34.257H120.636V35.0454H121.785V35.547H120.636V36.3354H122V36.837Z" fill="white"/>
<path d="M10.9083 23.722L12.1283 14.6203L1.57886 7.3103L11.1953 10.5353L13.4918 7.0953L21.7447 1.9353L39.973 11.9686L40.9059 27.3053L32.7965 38.557L26.4094 39.5603L29.7106 33.4686V27.592L27.2706 23.077L24.8306 21.5003L21.0271 25.3703V29.4553L18.0847 32.2503L14.353 32.6803L12.7024 33.612L9.97533 32.752L8.89886 28.667L10.9083 25.8003V23.722Z" fill="white"/>
<path d="M27.6295 7.2388C25.62 6.8088 23.4671 6.95213 23.4671 6.95213C23.4671 6.95213 22.7495 10.2488 18.3 11.1088C18.3 11.1088 24.1848 13.1155 27.6295 7.2388Z" fill="white"/>
<path d="M29.4236 37.3387C31.8636 35.4754 33.6577 32.8237 34.5189 29.8854C34.5189 29.742 34.8777 29.5987 35.093 29.4554C35.4518 29.2404 35.8824 29.0254 35.9542 28.7387C36.0977 27.8787 36.1695 26.947 36.1695 26.087C36.1695 25.7287 35.8107 25.442 35.5236 25.0837C35.2365 24.8687 35.0212 24.582 35.0212 24.4387C34.6624 20.9987 33.0836 17.7737 30.5001 15.4804L30.213 15.767C32.653 18.0604 34.2318 21.2137 34.5907 24.5104C34.5907 24.797 34.9495 25.0837 35.2365 25.442C35.5236 25.657 35.8107 26.0154 35.8107 26.1587C35.8107 27.0187 35.7389 27.8787 35.5954 28.7387C35.5954 28.882 35.2365 29.0254 34.9495 29.1687C34.5907 29.3837 34.2318 29.527 34.1601 29.8137C33.2271 33.0387 31.146 35.8337 28.4189 37.6254C28.9212 36.5504 30.4283 33.1104 31.2895 31.3904L31.146 25.8004L26.3377 21.142L23.6107 21.5004L20.5965 26.302C20.5965 26.302 21.9601 28.0937 20.0224 30.172C18.0848 32.1787 16.5777 32.6804 16.5777 32.6804L15.2142 31.892C15.6448 31.3904 16.4342 30.602 17.0801 30.0287C18.1565 29.097 19.233 29.0254 19.233 28.0937C19.233 26.087 17.0801 26.5887 17.0801 26.5887L16.2907 27.377L15.9318 30.172L14.353 32.2504H14.1377L11.4824 31.6054C11.4824 31.6054 13.133 30.7454 13.4201 29.742C13.7071 28.8104 12.9177 25.657 12.846 25.5137C12.846 25.5137 13.6354 26.1587 13.9942 27.2337C14.5683 25.5854 15.3577 24.0087 15.6448 23.8654C15.8601 23.722 18.946 22.0737 18.946 22.0737L17.9412 24.7254L18.7307 24.2954L20.5248 19.852C20.5248 19.852 22.3189 18.992 23.6107 18.992C25.9789 18.992 29.4954 16.0537 27.9165 10.822C28.3471 11.037 36.2412 14.907 37.6048 22.647C38.466 28.5954 35.1648 34.1137 29.4236 37.3387Z" fill="white"/>
<path d="M20.453 8.09866C21.3142 7.09533 20.9554 5.59033 20.9554 5.59033L18.4436 9.317C18.4436 9.317 19.3765 9.317 20.453 8.09866Z" fill="white"/>
<path d="M11.9846 28.5238L12.2717 27.0188C12.2717 27.0188 11.0517 29.1688 10.9082 29.5271C10.7646 29.8855 10.9799 30.4588 11.4823 30.4588C11.9846 30.4588 12.5587 29.6705 12.5587 29.1688C12.5587 28.3805 11.9846 28.5238 11.9846 28.5238Z" fill="white"/>
<path d="M34.3753 4.51541C34.3753 4.51541 36.2412 4.58707 38.2506 4.80207C33.8012 1.36207 29.6388 0.287074 26.2659 0.287074C21.6012 0.287074 18.4435 2.22207 18.2282 2.29374L19.6635 0.000407046C19.6635 0.000407046 13.7788 -0.572926 11.6977 5.66207C11.1235 4.37207 10.6929 2.43707 10.6929 2.43707C10.6929 2.43707 7.60707 5.08874 9.04236 9.53207C5.52589 8.24207 0.574125 6.52207 0.358831 6.45041C0.0717724 6.45041 7.74581e-06 6.52207 7.74581e-06 6.52207C7.74581e-06 6.52207 -0.071757 6.66541 0.143537 6.80874C0.574125 7.16707 8.46824 12.9721 10.1906 14.1187C9.83177 15.4804 9.83177 16.1254 10.1906 16.7704C10.6929 17.6304 10.7647 18.0604 10.6929 18.7054C10.6212 19.3504 9.90354 24.8687 9.76001 25.5854C9.61648 26.2304 8.03765 28.6671 8.10942 29.3837C8.18118 30.1004 9.18589 33.1821 10.0471 33.4687C10.6929 33.6837 12.2718 34.1854 13.3482 34.1854C13.7071 34.1854 14.0659 34.1137 14.2094 33.9704C14.8553 33.3971 15.0706 33.3254 15.5012 33.3254C15.5012 33.3254 15.5729 33.3254 15.6447 33.3254C15.86 33.3254 16.0753 33.3254 16.2906 33.3254C16.8647 33.3254 17.6541 33.1821 18.2282 32.6804C19.0894 31.8204 20.5247 30.7454 20.9553 30.1721C21.5294 29.4554 21.8165 28.4521 21.673 27.5204C21.5294 26.5887 22.0318 25.8004 22.6059 25.0121C23.3235 24.0804 24.6153 22.3604 24.6153 22.3604C27.1988 24.2954 28.8494 27.3054 28.8494 30.6021C28.8494 36.4787 23.6824 41.2087 17.3671 41.2087C16.3624 41.2087 15.4294 41.0654 14.4965 40.8504C17.4388 41.8537 19.8788 42.2121 21.8882 42.2121C26.1224 42.2121 28.4188 40.6354 28.4188 40.6354C28.4188 40.6354 27.6294 41.6387 26.3377 42.7854C33.3706 41.7821 36.8153 35.9771 36.8153 35.9771C36.8153 35.9771 36.5282 37.8404 36.2412 39.1304C45.6424 32.1071 44.0635 23.2921 43.9918 22.9337C44.0635 23.0771 44.9965 24.1521 45.4988 24.7971C47.1494 9.53207 34.3753 4.51541 34.3753 4.51541ZM19.9506 29.3121C19.8071 29.5271 19.1612 30.1004 18.7306 30.4587C18.3 30.8887 17.7977 31.3187 17.4388 31.6771C17.2953 31.8204 17.0082 31.8921 16.5059 31.8921C16.3624 31.8921 16.2188 31.8921 16.0753 31.8921C16.0035 31.8921 15.9318 31.8921 15.86 31.8921C15.7882 31.8921 15.7165 31.8921 15.7165 31.8921C15.5729 31.8921 15.5012 31.8921 15.3577 31.8921C15.9318 31.1037 17.5824 29.3837 18.1565 29.0254C18.8024 28.5954 19.1612 28.0937 18.7306 27.3054C18.3 26.5171 17.2235 26.7321 17.2235 26.7321C17.2235 26.7321 17.8694 26.4454 18.4435 26.4454C17.7259 26.2304 16.7929 26.4454 16.4341 26.8754C16.0035 27.3054 16.0753 28.7387 15.86 29.6704C15.6447 30.6737 14.9988 31.1754 14.0659 32.0354C13.5635 32.5371 13.1329 32.6804 12.8459 32.6804C12.2 32.5371 11.4824 32.3937 10.9082 32.1787C10.5494 31.6771 9.9753 30.0287 9.83177 29.3837C9.9753 29.0254 10.4059 28.2371 10.6212 27.7354C11.0518 26.8754 11.3388 26.3737 11.4106 25.9437C11.5541 25.2987 12.0565 21.3571 12.2718 19.7087C12.7741 20.3537 13.42 21.4287 13.2765 22.0737C14.353 20.4971 13.5635 18.9921 13.2047 18.4187C12.8459 17.8454 12.4153 16.6271 12.7741 15.3371C13.1329 14.0471 14.4965 10.5354 14.4965 10.5354C14.4965 10.5354 14.9271 11.3237 15.573 11.1804C16.2188 11.0371 21.3859 3.29707 21.3859 3.29707C21.3859 3.29707 22.7494 6.37874 21.3141 8.60041C19.8071 10.8221 18.3 11.2521 18.3 11.2521C18.3 11.2521 20.3812 11.6104 22.3188 10.2487C23.1082 12.1121 23.8977 14.0471 23.8977 14.2621C23.7541 14.5487 22.2471 18.1321 22.1035 18.3471C22.0318 18.4187 21.5294 18.5621 21.0988 18.6337C20.4529 18.8487 20.0941 18.9204 19.9506 19.0637C19.6635 19.2787 18.4435 22.5754 17.9412 24.2237C17.2953 24.4387 16.5777 24.7971 16.0753 25.5137C16.3624 25.2987 17.1518 25.2271 17.7977 25.1554C18.3 25.1554 19.9506 26.0154 20.3812 27.5921C20.3812 27.5921 20.3812 27.5921 20.3812 27.6637C20.4529 28.3087 20.2377 28.8821 19.9506 29.3121ZM16.3624 29.7421C16.7212 29.2404 16.6494 28.4521 16.7212 28.1654C16.7929 27.8787 16.8647 27.3771 17.1518 27.3054C17.4388 27.2337 18.1565 27.3054 18.1565 27.8787C18.1565 28.3804 17.6541 28.4521 17.2235 28.8104C17.0082 29.0971 16.5059 29.6704 16.3624 29.7421ZM31.4329 22.5754C31.7918 20.6404 31.8635 18.9921 31.72 17.6304C33.2271 19.5654 34.0882 21.9304 34.3753 24.4387C34.3753 24.7254 34.7341 25.0121 35.0212 25.3704C35.3082 25.5854 35.5953 25.8721 35.5953 26.0871C35.5953 26.9471 35.5235 27.8071 35.38 28.6671C35.38 28.8104 35.0212 28.9537 34.7341 29.0971C34.3753 29.3121 34.0165 29.4554 33.9447 29.7421C33.0835 32.6804 31.3612 35.1887 28.993 36.9804C32.5094 33.3971 34.16 27.3771 31.4329 22.5754ZM29.0647 37.4104C31.5047 35.5471 33.3706 32.8954 34.2318 29.8854C34.2318 29.7421 34.5906 29.5987 34.8059 29.4554C35.1647 29.2404 35.5953 29.0254 35.6671 28.7387C35.8106 27.8787 35.8824 26.9471 35.8824 26.0871C35.8824 25.7287 35.5235 25.4421 35.2365 25.0837C35.0212 24.8687 34.7341 24.5821 34.7341 24.4387C34.4471 21.7154 33.3706 19.0637 31.6482 16.9137C30.8588 12.3987 27.8447 10.9654 27.7729 10.9654C27.8447 11.1087 29.7824 13.9037 28.4188 17.2004C27.0553 20.5687 23.4671 19.9954 23.1082 20.0671C22.8212 20.0671 21.6012 21.5721 20.1659 24.3671C19.9506 24.2954 19.1612 24.0804 18.3 24.2237C18.9459 22.3604 20.0224 19.6371 20.1659 19.4221C20.2377 19.3504 20.8118 19.2071 21.1706 19.0637C21.8882 18.8487 22.2471 18.7771 22.3188 18.6337C22.3906 18.4904 22.7494 17.6304 23.18 16.7704C23.5388 16.7704 24.4 16.6987 24.4718 16.6271C24.5435 16.5554 25.2612 14.6921 25.2612 14.4771C25.2612 14.2621 23.7541 10.6071 23.2518 9.24541C23.5388 8.95874 23.7541 8.60041 24.0412 8.17041C31.7918 9.03041 37.82 15.5521 37.82 23.5071C37.8918 29.5987 34.3035 34.9021 29.0647 37.4104Z" fill="#404040"/>
<path d="M19.0176 16.9854C19.7353 16.1254 19.3764 14.6204 18.0129 14.3337C18.3717 13.5454 18.8741 11.9688 18.8741 11.9688C18.8741 11.9688 14.9988 17.9887 14.7117 18.1321C14.3529 18.2754 14.0659 16.9137 14.0659 16.9137C13.3482 19.6371 15.2859 20.0671 15.5011 19.2071C16.5059 18.9204 18.3 17.8454 19.0176 16.9854Z" fill="white"/>
<path d="M15.7883 18.4904L17.726 15.1221C17.726 15.1221 18.8742 15.6954 18.3001 16.6271C17.5824 17.6304 15.7883 18.4904 15.7883 18.4904Z" fill="white"/>
<path d="M40.0448 34.042C39.4707 34.8303 38.8248 35.6186 38.1072 36.3353C42.9872 26.947 38.3225 18.4186 38.1072 18.0603C38.466 18.4186 38.7531 18.777 39.1119 19.1353C42.8437 23.292 43.2742 29.527 40.0448 34.042Z" fill="white"/>
<path d="M44.566 22.002C42.8436 17.4153 40.4754 13.5453 35.1648 10.0337C29.9977 6.66533 24.5436 6.88033 24.1848 6.952H24.113C24.3283 6.88033 24.4719 6.80867 24.6872 6.80867C25.8354 6.45033 27.3425 6.092 28.8495 5.94867C32.8683 5.37533 36.8872 6.737 39.6142 9.67533C39.6142 9.67533 39.6142 9.67533 39.686 9.747C42.8436 13.0437 44.4942 17.2003 44.566 22.002Z" fill="white"/>
<path d="M33.9448 3.36884C28.3472 2.29384 24.6872 2.86717 22.1037 3.79884C21.9601 3.51217 21.7448 2.86717 21.5295 2.3655C20.7401 3.29717 19.879 4.44384 19.3766 5.1605C17.9413 6.16384 17.3672 7.0955 17.3672 7.0955C18.1566 4.3005 20.5966 2.1505 23.539 1.64884C24.3284 1.5055 25.2613 1.43384 26.1942 1.43384C28.8495 1.43384 31.4331 2.07884 33.9448 3.36884Z" fill="white"/>
<path d="M13.133 10.6071C8.68355 10.4638 10.1906 5.30376 10.2624 5.01709C10.2624 5.01709 10.5494 9.03042 13.133 10.6071Z" fill="white"/>
<path d="M17.4388 1.36206C14.0659 3.36873 14.7118 8.24206 14.7118 8.24206C11.4824 3.29706 17.2236 1.43373 17.4388 1.36206Z" fill="white"/>
<path d="M11.8412 11.897C12.0565 12.112 12.2718 12.3986 12.0565 12.9003C11.913 13.187 11.6977 13.1153 11.3389 12.972C10.9083 12.757 8.18121 11.1803 5.74121 9.53198C8.54003 10.5353 11.3389 11.5386 11.8412 11.8253C11.7694 11.8253 11.8412 11.897 11.8412 11.897Z" fill="white"/>
</svg>
