<svg width="159" height="32" viewBox="0 0 159 32" fill="none" xmlns="http://www.w3.org/2000/svg">
<path fill-rule="evenodd" clip-rule="evenodd" d="M33.0126 4.85381V0H16.8886C13.2094 3.05857e-05 10.2894 0.443301 8.12847 1.32981C5.96752 2.21638 4.07254 3.86756 2.44353 6.28336C0.814507 8.69921 -2.32716e-06 11.4807 0 14.6279C-2.32716e-06 19.0828 1.55144 22.9891 4.65434 26.3469C7.75722 29.7047 11.4474 31.3836 15.725 31.3836C19.3377 31.3836 22.568 30.1978 25.416 27.8263C28.264 25.4548 29.688 22.4627 29.688 18.8501C29.688 16.0797 28.7904 13.4588 26.9952 10.9876C25.1999 8.51636 22.8838 6.47177 20.0469 4.85381H33.0126ZM16.6559 4.85381H17.8195C21.8754 8.93192 23.9033 13.3979 23.9034 18.2517C23.9033 21.3102 23.1719 23.92 21.7092 26.0809C20.2464 28.2419 18.3957 29.3223 16.1572 29.3223C13.3646 29.3223 10.9266 27.8873 8.84325 25.0171C6.75987 22.1469 5.71818 18.839 5.71819 15.0934C5.71818 11.5694 6.71 8.98179 8.69364 7.33059C10.6773 5.67943 13.3313 4.85384 16.6559 4.85381Z" fill="#353535"/>
<path d="M40.2831 15.9236C40.2831 17.2028 41.2496 18.0949 42.8774 18.5326L47.5571 19.795C48.2523 19.997 48.8288 20.3505 48.8288 20.906V21.2258C48.8288 22.1011 47.8793 22.6902 45.5564 22.6902C43.2504 22.6902 42.3178 22.1011 42.3178 21.2258V20.6367H39.8932V21.108C39.8932 23.2457 42.0635 24.5923 45.5564 24.5923C49.0662 24.5923 51.2535 23.2625 51.2535 21.108V20.8723C51.2535 19.3069 50.1853 18.3811 48.5066 17.9098L44.166 16.7315C43.03 16.4117 42.7078 16.1087 42.7078 15.7384V15.5027C42.7078 14.4928 43.9795 14.2235 45.5564 14.2235C47.0993 14.2235 48.4897 14.476 48.4897 15.5027V15.9236H50.9313V15.6374C50.9313 13.1799 48.6253 12.3214 45.5564 12.3214C42.4196 12.3214 40.2831 13.264 40.2831 15.6374V15.9236Z" fill="#353535"/>
<path d="M55.2155 18.3306C55.402 17.4216 56.182 17.0513 57.5893 17.085C59.0645 17.1018 59.7257 17.6068 59.7257 18.5326V18.7009C59.7088 19.1722 58.5049 19.2901 57.2163 19.4079C55.2664 19.5762 52.9774 19.7782 52.8078 21.7644C52.7909 21.8654 52.7909 21.9664 52.7909 22.0674C52.7909 23.717 54.3169 24.6428 56.3007 24.6428C57.8097 24.626 59.2171 24.02 60.0479 22.909L60.2005 24.3566H62.0317V19.1049C62.0317 16.479 60.1157 15.6542 57.5893 15.6542C55.3851 15.6542 53.6386 16.3949 53.2317 18.3306H55.2155ZM59.7257 21.209C59.6749 22.3367 58.488 23.0942 57.0467 23.111C55.792 23.1447 55.1307 22.6061 55.1138 21.9328C55.0968 20.906 56.6059 20.805 57.8267 20.6872C58.7762 20.5525 59.3188 20.4683 59.7257 20.199V21.209Z" fill="#353535"/>
<path d="M67.1116 12.3887C65.8061 12.3887 64.7718 13.1462 64.7718 14.6779V15.9236H63.3644V17.3543H64.7718V24.3398H67.0777V17.3543H68.7903V15.9236H67.0777V14.6779C67.0777 14.0551 67.756 13.8195 68.2646 13.8195H68.7903V12.3887H67.1116Z" fill="#353535"/>
<path d="M70.0958 20.6535C70.1128 22.9932 71.9271 24.6091 74.9452 24.6091C77.4716 24.6091 79.1332 23.4982 79.6419 21.6803H77.302C77.1494 22.4882 76.2677 23.1279 74.9282 23.1279C73.2666 23.1279 72.4018 22.3367 72.4018 21.0238V20.5862H79.7775L79.7945 20.2663V19.7109C79.7945 16.7988 77.7598 15.6542 74.9282 15.6542C72.1136 15.6542 70.0958 16.7988 70.0958 19.7109V20.6535ZM72.4018 19.3237C72.4018 17.792 73.1818 17.1355 74.9282 17.1355C76.7086 17.1355 77.4885 17.7751 77.4885 19.3237H72.4018Z" fill="#353535"/>
<path d="M81.678 18.3643C81.678 19.3911 82.441 20.0475 83.6449 20.3673L86.5613 21.1585C87.2056 21.3436 87.7482 21.5961 87.7482 22.0843C87.7482 22.1011 87.7482 22.1179 87.7482 22.1348L87.7312 22.2189C87.6803 22.8417 86.9343 23.2289 85.5948 23.2289C84.2214 23.2289 83.4245 22.6902 83.3736 22.0506V21.7981H81.305V22.0674C81.4406 23.6497 83.0345 24.6091 85.5948 24.6091C88.2568 24.6091 89.9354 23.5823 89.9354 21.9159V21.8318C89.9354 20.5525 89.0368 19.9297 87.6634 19.5594L85.3065 18.9534C84.4418 18.7346 83.8144 18.4821 83.8144 18.1286V17.994C83.8144 17.4048 84.5435 17.1187 85.5948 17.1355C86.7647 17.1355 87.4938 17.5058 87.5447 18.1118V18.2296H89.5963V18.1118C89.5455 16.2939 87.8499 15.6542 85.5948 15.6542C83.3736 15.6542 81.678 16.2939 81.678 18.1623V18.3643Z" fill="#353535"/>
<path d="M92.4718 13.7017V15.9236H91.0644V17.3543H92.4718V22.6397C92.4718 24.0537 93.4382 24.4913 94.8117 24.4913H96.4903V23.0437H95.9138C94.9473 23.0437 94.7777 22.5892 94.7777 22.2526V17.3543H96.4903V15.9236H94.7777V13.7017H92.4718Z" fill="#353535"/>
<path d="M103.253 12.5739L97.7426 24.3398H100.337L101.439 21.8318H107.628L108.713 24.3398H111.324L105.797 12.5739H103.253ZM107.051 20.098H102.032L104.525 14.375L107.051 20.098Z" fill="#353535"/>
<path d="M112.675 18.3643C112.675 19.3911 113.438 20.0475 114.642 20.3673L117.558 21.1585C118.203 21.3436 118.745 21.5961 118.745 22.0843C118.745 22.1011 118.745 22.1179 118.745 22.1348L118.728 22.2189C118.677 22.8417 117.931 23.2289 116.592 23.2289C115.218 23.2289 114.422 22.6902 114.371 22.0506V21.7981H112.302V22.0674C112.438 23.6497 114.032 24.6091 116.592 24.6091C119.254 24.6091 120.933 23.5823 120.933 21.9159V21.8318C120.933 20.5525 120.034 19.9297 118.66 19.5594L116.304 18.9534C115.439 18.7346 114.812 18.4821 114.812 18.1286V17.994C114.812 17.4048 115.541 17.1187 116.592 17.1355C117.762 17.1355 118.491 17.5058 118.542 18.1118V18.2296H120.593V18.1118C120.543 16.2939 118.847 15.6542 116.592 15.6542C114.371 15.6542 112.675 16.2939 112.675 18.1623V18.3643Z" fill="#353535"/>
<path d="M122.858 18.3643C122.858 19.3911 123.621 20.0475 124.825 20.3673L127.742 21.1585C128.386 21.3436 128.929 21.5961 128.929 22.0843C128.929 22.1011 128.929 22.1179 128.929 22.1348L128.912 22.2189C128.861 22.8417 128.115 23.2289 126.775 23.2289C125.402 23.2289 124.605 22.6902 124.554 22.0506V21.7981H122.485V22.0674C122.621 23.6497 124.215 24.6091 126.775 24.6091C129.437 24.6091 131.116 23.5823 131.116 21.9159V21.8318C131.116 20.5525 130.217 19.9297 128.844 19.5594L126.487 18.9534C125.622 18.7346 124.995 18.4821 124.995 18.1286V17.994C124.995 17.4048 125.724 17.1187 126.775 17.1355C127.945 17.1355 128.674 17.5058 128.725 18.1118V18.2296H130.777V18.1118C130.726 16.2939 129.03 15.6542 126.775 15.6542C124.554 15.6542 122.858 16.2939 122.858 18.1623V18.3643Z" fill="#353535"/>
<path d="M132.703 20.6535C132.72 22.9932 134.534 24.6091 137.552 24.6091C140.078 24.6091 141.74 23.4982 142.249 21.6803H139.909C139.756 22.4882 138.875 23.1279 137.535 23.1279C135.873 23.1279 135.009 22.3367 135.009 21.0238V20.5862H142.384L142.401 20.2663V19.7109C142.401 16.7988 140.367 15.6542 137.535 15.6542C134.72 15.6542 132.703 16.7988 132.703 19.7109V20.6535ZM135.009 19.3237C135.009 17.792 135.789 17.1355 137.535 17.1355C139.315 17.1355 140.095 17.7751 140.095 19.3237H135.009Z" fill="#353535"/>
<path d="M144.895 13.7017V15.9236H143.488V17.3543H144.895V22.6397C144.895 24.0537 145.862 24.4913 147.235 24.4913H148.914V23.0437H148.337C147.371 23.0437 147.201 22.5892 147.201 22.2526V17.3543H148.914V15.9236H147.201V13.7017H144.895Z" fill="#353535"/>
<path d="M150.743 18.3643C150.743 19.3911 151.506 20.0475 152.709 20.3673L155.626 21.1585C156.27 21.3436 156.813 21.5961 156.813 22.0843C156.813 22.1011 156.813 22.1179 156.813 22.1348L156.796 22.2189C156.745 22.8417 155.999 23.2289 154.659 23.2289C153.286 23.2289 152.489 22.6902 152.438 22.0506V21.7981H150.37V22.0674C150.505 23.6497 152.099 24.6091 154.659 24.6091C157.321 24.6091 159 23.5823 159 21.9159V21.8318C159 20.5525 158.101 19.9297 156.728 19.5594L154.371 18.9534C153.506 18.7346 152.879 18.4821 152.879 18.1286V17.994C152.879 17.4048 153.608 17.1187 154.659 17.1355C155.829 17.1355 156.558 17.5058 156.609 18.1118V18.2296H158.661V18.1118C158.61 16.2939 156.914 15.6542 154.659 15.6542C152.438 15.6542 150.743 16.2939 150.743 18.1623V18.3643Z" fill="#353535"/>
</svg>
