<svg width="239" height="36" viewBox="0 0 239 36" fill="none" xmlns="http://www.w3.org/2000/svg">
<path d="M44.1179 31.2411V4.69749H53.9627C55.8704 4.69749 57.4499 5.00854 58.7013 5.63066C59.9527 6.24413 60.8891 7.07795 61.5104 8.13209C62.1318 9.17759 62.4423 10.357 62.4423 11.6704C62.4423 12.7764 62.2368 13.7095 61.8255 14.4699C61.4142 15.2216 60.8628 15.8264 60.1715 16.2844C59.4889 16.7337 58.7363 17.062 57.9138 17.2694V17.5286C58.8064 17.5718 59.6771 17.8569 60.5259 18.384C61.3835 18.9024 62.0923 19.6413 62.6525 20.6004C63.2125 21.5595 63.4925 22.7259 63.4925 24.0998C63.4925 25.4563 63.1687 26.6746 62.5211 27.7547C61.8823 28.8261 60.8935 29.6772 59.5546 30.3079C58.2156 30.93 56.5048 31.2411 54.4221 31.2411H44.1179ZM48.1739 27.8065H54.0284C55.971 27.8065 57.3624 27.435 58.2025 26.6919C59.0426 25.9488 59.4627 25.02 59.4627 23.9053C59.4627 23.0672 59.2483 22.2982 58.8195 21.5983C58.3907 20.8985 57.7781 20.3412 56.9818 19.9263C56.1942 19.5117 55.2578 19.3042 54.1727 19.3042H48.1739V27.8065ZM48.1739 16.1807H53.6083C54.5184 16.1807 55.3366 16.0079 56.0629 15.6623C56.798 15.3167 57.38 14.8328 57.8088 14.2107C58.2463 13.5799 58.4651 12.8368 58.4651 11.9814C58.4651 10.8841 58.0756 9.96387 57.2969 9.2208C56.518 8.47771 55.3235 8.10617 53.7133 8.10617H48.1739V16.1807Z" fill="url(#paint0_linear_19_229)"/>
<path d="M67.249 31.2412V11.3334H71.1739V31.2412H67.249ZM69.2311 8.26172C68.5486 8.26172 67.9622 8.03706 67.4721 7.58776C66.9909 7.12981 66.7503 6.58546 66.7503 5.9547C66.7503 5.31531 66.9909 4.77095 67.4721 4.32165C67.9622 3.86369 68.5486 3.63472 69.2311 3.63472C69.9136 3.63472 70.4956 3.86369 70.977 4.32165C71.467 4.77095 71.7119 5.31531 71.7119 5.9547C71.7119 6.58546 71.467 7.12981 70.977 7.58776C70.4956 8.03706 69.9136 8.26172 69.2311 8.26172Z" fill="url(#paint1_linear_19_229)"/>
<path d="M85.1263 11.3334V14.4441H74.1132V11.3334H85.1263ZM77.0667 6.56388H80.9914V25.3958C80.9914 26.1475 81.1052 26.7136 81.3327 27.0938C81.5603 27.4653 81.8534 27.7202 82.2122 27.8584C82.5797 27.9881 82.9779 28.0529 83.4067 28.0529C83.7218 28.0529 83.9974 28.0313 84.2337 27.9881C84.47 27.9448 84.6537 27.9103 84.785 27.8844L85.4938 31.0856C85.2663 31.1721 84.9426 31.2585 84.5225 31.3449C84.1025 31.4399 83.5774 31.4917 82.9473 31.5004C81.9147 31.5177 80.9521 31.3362 80.0595 30.956C79.1669 30.5759 78.4449 29.9883 77.8936 29.1934C77.3424 28.3985 77.0667 27.4005 77.0667 26.1995V6.56388Z" fill="url(#paint2_linear_19_229)"/>
<path d="M97.0048 31.643C95.0533 31.643 93.3731 31.2066 91.9642 30.3339C90.5641 29.4526 89.4878 28.2385 88.7351 26.6919C87.9825 25.1452 87.6063 23.374 87.6063 21.378C87.6063 19.3562 87.9913 17.5719 88.7614 16.0253C89.5315 14.4699 90.6166 13.2559 92.0167 12.3832C93.4169 11.5106 95.0664 11.0742 96.9654 11.0742C98.4968 11.0742 99.862 11.355 101.061 11.9166C102.26 12.4696 103.227 13.2473 103.962 14.2496C104.706 15.2518 105.148 16.4226 105.288 17.762H101.468C101.258 16.8288 100.776 16.0253 100.024 15.3512C99.28 14.6773 98.2824 14.3403 97.031 14.3403C95.9372 14.3403 94.979 14.6254 94.1564 15.1957C93.3425 15.7573 92.7081 16.561 92.2531 17.6065C91.7979 18.6433 91.5704 19.8703 91.5704 21.2873C91.5704 22.7389 91.7936 23.9918 92.2399 25.0459C92.6862 26.1 93.3163 26.9165 94.1302 27.4954C94.9527 28.0745 95.9196 28.3638 97.031 28.3638C97.7749 28.3638 98.4487 28.2299 99.0525 27.962C99.6651 27.6855 100.177 27.2924 100.588 26.7826C101.008 26.2728 101.302 25.6594 101.468 24.9422H105.288C105.148 26.2296 104.723 27.3788 104.014 28.3897C103.305 29.4008 102.356 30.1957 101.166 30.7746C99.9845 31.3535 98.5975 31.643 97.0048 31.643Z" fill="url(#paint3_linear_19_229)"/>
<path d="M117.239 31.643C115.348 31.643 113.698 31.2153 112.29 30.3599C110.881 29.5044 109.787 28.3076 109.008 26.7697C108.229 25.2317 107.84 23.4344 107.84 21.378C107.84 19.313 108.229 17.5071 109.008 15.9605C109.787 14.4137 110.881 13.2127 112.29 12.3573C113.698 11.5019 115.348 11.0742 117.239 11.0742C119.129 11.0742 120.779 11.5019 122.187 12.3573C123.595 13.2127 124.69 14.4137 125.468 15.9605C126.248 17.5071 126.636 19.313 126.636 21.378C126.636 23.4344 126.248 25.2317 125.468 26.7697C124.69 28.3076 123.595 29.5044 122.187 30.3599C120.779 31.2153 119.129 31.643 117.239 31.643ZM117.252 28.3897C118.477 28.3897 119.492 28.07 120.297 27.4306C121.102 26.7913 121.697 25.9402 122.081 24.8774C122.476 23.8146 122.673 22.6438 122.673 21.3651C122.673 20.0949 122.476 18.9285 122.081 17.8657C121.697 16.7943 121.102 15.9344 120.297 15.2864C119.492 14.6384 118.477 14.3144 117.252 14.3144C116.017 14.3144 114.994 14.6384 114.18 15.2864C113.375 15.9344 112.775 16.7943 112.382 17.8657C111.996 18.9285 111.804 20.0949 111.804 21.3651C111.804 22.6438 111.996 23.8146 112.382 24.8774C112.775 25.9402 113.375 26.7913 114.18 27.4306C114.994 28.07 116.017 28.3897 117.252 28.3897Z" fill="url(#paint4_linear_19_229)"/>
<path d="M130.278 31.2412V11.3334H134.203V31.2412H130.278ZM132.261 8.26172C131.578 8.26172 130.992 8.03706 130.502 7.58776C130.021 7.12981 129.779 6.58546 129.779 5.9547C129.779 5.31531 130.021 4.77095 130.502 4.32165C130.992 3.86369 131.578 3.63472 132.261 3.63472C132.943 3.63472 133.526 3.86369 134.006 4.32165C134.497 4.77095 134.741 5.31531 134.741 5.9547C134.741 6.58546 134.497 7.12981 134.006 7.58776C133.526 8.03706 132.943 8.26172 132.261 8.26172Z" fill="url(#paint5_linear_19_229)"/>
<path d="M142.669 19.421V31.2412H138.744V11.3334H142.511V14.5736H142.761C143.225 13.5194 143.951 12.6727 144.94 12.0333C145.937 11.3939 147.193 11.0742 148.707 11.0742C150.08 11.0742 151.285 11.3593 152.317 11.9296C153.35 12.4912 154.15 13.3294 154.719 14.444C155.287 15.5586 155.572 16.9368 155.572 18.5785V31.2412H151.648V19.0451C151.648 17.6021 151.266 16.4746 150.505 15.6624C149.744 14.8414 148.699 14.431 147.368 14.431C146.458 14.431 145.648 14.6254 144.94 15.0142C144.24 15.4032 143.684 15.9733 143.272 16.725C142.87 17.4682 142.669 18.3668 142.669 19.421Z" fill="url(#paint6_linear_19_229)"/>
<path d="M162.682 31.4874C161.965 31.4874 161.348 31.2369 160.832 30.7357C160.316 30.2259 160.057 29.6125 160.057 28.8953C160.057 28.1868 160.316 27.582 160.832 27.0808C161.348 26.5709 161.965 26.316 162.682 26.316C163.401 26.316 164.017 26.5709 164.533 27.0808C165.049 27.582 165.308 28.1868 165.308 28.8953C165.308 29.3705 165.185 29.8069 164.94 30.2043C164.703 30.5931 164.389 30.9042 163.995 31.1375C163.601 31.3708 163.164 31.4874 162.682 31.4874Z" fill="url(#paint7_linear_19_229)"/>
<path d="M178.318 31.643C176.367 31.643 174.687 31.2066 173.277 30.3339C171.878 29.4526 170.801 28.2385 170.048 26.6919C169.297 25.1452 168.92 23.374 168.92 21.378C168.92 19.3562 169.305 17.5719 170.075 16.0253C170.846 14.4699 171.93 13.2559 173.331 12.3832C174.731 11.5106 176.38 11.0742 178.279 11.0742C179.81 11.0742 181.176 11.355 182.374 11.9166C183.573 12.4696 184.54 13.2473 185.275 14.2496C186.02 15.2518 186.461 16.4226 186.601 17.762H182.782C182.572 16.8288 182.09 16.0253 181.337 15.3512C180.593 14.6773 179.596 14.3403 178.345 14.3403C177.251 14.3403 176.293 14.6254 175.47 15.1957C174.656 15.7573 174.022 16.561 173.566 17.6065C173.111 18.6433 172.884 19.8703 172.884 21.2873C172.884 22.7389 173.107 23.9918 173.553 25.0459C174 26.1 174.63 26.9165 175.443 27.4954C176.266 28.0745 177.234 28.3638 178.345 28.3638C179.089 28.3638 179.763 28.2299 180.366 27.962C180.979 27.6855 181.49 27.2924 181.902 26.7826C182.322 26.2728 182.615 25.6594 182.782 24.9422H186.601C186.461 26.2296 186.037 27.3788 185.328 28.3897C184.619 29.4008 183.669 30.1957 182.48 30.7746C181.298 31.3535 179.911 31.643 178.318 31.643Z" fill="url(#paint8_linear_19_229)"/>
<path d="M198.552 31.643C196.662 31.643 195.012 31.2153 193.603 30.3599C192.194 29.5044 191.1 28.3076 190.322 26.7697C189.543 25.2317 189.153 23.4344 189.153 21.378C189.153 19.313 189.543 17.5071 190.322 15.9605C191.1 14.4137 192.194 13.2127 193.603 12.3573C195.012 11.5019 196.662 11.0742 198.552 11.0742C200.442 11.0742 202.092 11.5019 203.5 12.3573C204.909 13.2127 206.003 14.4137 206.783 15.9605C207.561 17.5071 207.951 19.313 207.951 21.378C207.951 23.4344 207.561 25.2317 206.783 26.7697C206.003 28.3076 204.909 29.5044 203.5 30.3599C202.092 31.2153 200.442 31.643 198.552 31.643ZM198.565 28.3897C199.79 28.3897 200.805 28.07 201.61 27.4306C202.416 26.7913 203.011 25.9402 203.396 24.8774C203.789 23.8146 203.987 22.6438 203.987 21.3651C203.987 20.0949 203.789 18.9285 203.396 17.8657C203.011 16.7943 202.416 15.9344 201.61 15.2864C200.805 14.6384 199.79 14.3144 198.565 14.3144C197.332 14.3144 196.307 14.6384 195.494 15.2864C194.689 15.9344 194.089 16.7943 193.696 17.8657C193.31 18.9285 193.118 20.0949 193.118 21.3651C193.118 22.6438 193.31 23.8146 193.696 24.8774C194.089 25.9402 194.689 26.7913 195.494 27.4306C196.307 28.07 197.332 28.3897 198.565 28.3897Z" fill="url(#paint9_linear_19_229)"/>
<path d="M211.592 31.2412V11.3334H215.359V14.5736H215.608C216.029 13.4762 216.716 12.6208 217.67 12.0074C218.624 11.3853 219.765 11.0742 221.096 11.0742C222.443 11.0742 223.572 11.3853 224.482 12.0074C225.401 12.6295 226.079 13.4849 226.516 14.5736H226.726C227.208 13.5108 227.974 12.664 229.023 12.0333C230.073 11.3939 231.325 11.0742 232.778 11.0742C234.607 11.0742 236.1 11.6401 237.254 12.772C238.418 13.9039 239 15.6104 239 17.8916V31.2412H235.075V18.2545C235.075 16.9066 234.704 15.9301 233.959 15.3253C233.215 14.7205 232.328 14.418 231.295 14.418C230.017 14.418 229.023 14.8069 228.315 15.5845C227.606 16.3536 227.252 17.3429 227.252 18.5526V31.2412H223.34V18.0082C223.34 16.9282 222.999 16.0597 222.316 15.4032C221.634 14.7464 220.745 14.418 219.651 14.418C218.908 14.418 218.221 14.6125 217.591 15.0013C216.969 15.3816 216.467 15.9128 216.082 16.5954C215.704 17.2781 215.516 18.0687 215.516 18.9673V31.2412H211.592Z" fill="url(#paint10_linear_19_229)"/>
<path d="M23.5225 12.1634H11.7612V23.7763H23.5225V12.1634Z" fill="url(#paint11_linear_19_229)"/>
<path d="M35.2838 0.550049H23.5226L23.5225 12.1634L35.2838 12.1629V0.550049Z" fill="url(#paint12_linear_19_229)"/>
<path d="M11.7612 23.7763L0 23.7758V35.3887H11.7612L11.7612 23.7763Z" fill="url(#paint13_linear_19_229)"/>
<defs>
<linearGradient id="paint0_linear_19_229" x1="9.13375" y1="0.550057" x2="152.528" y2="130.677" gradientUnits="userSpaceOnUse">
<stop stop-color="#9CABF6"/>
<stop offset="0.301576" stop-color="#3996F4"/>
<stop offset="0.749922" stop-color="#C2A5F8"/>
<stop offset="1" stop-color="#C295F4"/>
</linearGradient>
<linearGradient id="paint1_linear_19_229" x1="9.13375" y1="0.550057" x2="152.528" y2="130.677" gradientUnits="userSpaceOnUse">
<stop stop-color="#9CABF6"/>
<stop offset="0.301576" stop-color="#3996F4"/>
<stop offset="0.749922" stop-color="#C2A5F8"/>
<stop offset="1" stop-color="#C295F4"/>
</linearGradient>
<linearGradient id="paint2_linear_19_229" x1="9.13375" y1="0.550057" x2="152.528" y2="130.677" gradientUnits="userSpaceOnUse">
<stop stop-color="#9CABF6"/>
<stop offset="0.301576" stop-color="#3996F4"/>
<stop offset="0.749922" stop-color="#C2A5F8"/>
<stop offset="1" stop-color="#C295F4"/>
</linearGradient>
<linearGradient id="paint3_linear_19_229" x1="9.13375" y1="0.550057" x2="152.528" y2="130.677" gradientUnits="userSpaceOnUse">
<stop stop-color="#9CABF6"/>
<stop offset="0.301576" stop-color="#3996F4"/>
<stop offset="0.749922" stop-color="#C2A5F8"/>
<stop offset="1" stop-color="#C295F4"/>
</linearGradient>
<linearGradient id="paint4_linear_19_229" x1="9.13375" y1="0.550057" x2="152.528" y2="130.677" gradientUnits="userSpaceOnUse">
<stop stop-color="#9CABF6"/>
<stop offset="0.301576" stop-color="#3996F4"/>
<stop offset="0.749922" stop-color="#C2A5F8"/>
<stop offset="1" stop-color="#C295F4"/>
</linearGradient>
<linearGradient id="paint5_linear_19_229" x1="9.13375" y1="0.550057" x2="152.528" y2="130.677" gradientUnits="userSpaceOnUse">
<stop stop-color="#9CABF6"/>
<stop offset="0.301576" stop-color="#3996F4"/>
<stop offset="0.749922" stop-color="#C2A5F8"/>
<stop offset="1" stop-color="#C295F4"/>
</linearGradient>
<linearGradient id="paint6_linear_19_229" x1="9.13375" y1="0.550057" x2="152.528" y2="130.677" gradientUnits="userSpaceOnUse">
<stop stop-color="#9CABF6"/>
<stop offset="0.301576" stop-color="#3996F4"/>
<stop offset="0.749922" stop-color="#C2A5F8"/>
<stop offset="1" stop-color="#C295F4"/>
</linearGradient>
<linearGradient id="paint7_linear_19_229" x1="9.13375" y1="0.550057" x2="152.528" y2="130.677" gradientUnits="userSpaceOnUse">
<stop stop-color="#9CABF6"/>
<stop offset="0.301576" stop-color="#3996F4"/>
<stop offset="0.749922" stop-color="#C2A5F8"/>
<stop offset="1" stop-color="#C295F4"/>
</linearGradient>
<linearGradient id="paint8_linear_19_229" x1="9.13375" y1="0.550057" x2="152.528" y2="130.677" gradientUnits="userSpaceOnUse">
<stop stop-color="#9CABF6"/>
<stop offset="0.301576" stop-color="#3996F4"/>
<stop offset="0.749922" stop-color="#C2A5F8"/>
<stop offset="1" stop-color="#C295F4"/>
</linearGradient>
<linearGradient id="paint9_linear_19_229" x1="9.13375" y1="0.550057" x2="152.528" y2="130.677" gradientUnits="userSpaceOnUse">
<stop stop-color="#9CABF6"/>
<stop offset="0.301576" stop-color="#3996F4"/>
<stop offset="0.749922" stop-color="#C2A5F8"/>
<stop offset="1" stop-color="#C295F4"/>
</linearGradient>
<linearGradient id="paint10_linear_19_229" x1="9.13375" y1="0.550057" x2="152.528" y2="130.677" gradientUnits="userSpaceOnUse">
<stop stop-color="#9CABF6"/>
<stop offset="0.301576" stop-color="#3996F4"/>
<stop offset="0.749922" stop-color="#C2A5F8"/>
<stop offset="1" stop-color="#C295F4"/>
</linearGradient>
<linearGradient id="paint11_linear_19_229" x1="9.13375" y1="0.550057" x2="152.528" y2="130.677" gradientUnits="userSpaceOnUse">
<stop stop-color="#9CABF6"/>
<stop offset="0.301576" stop-color="#3996F4"/>
<stop offset="0.749922" stop-color="#C2A5F8"/>
<stop offset="1" stop-color="#C295F4"/>
</linearGradient>
<linearGradient id="paint12_linear_19_229" x1="9.13375" y1="0.550057" x2="152.528" y2="130.677" gradientUnits="userSpaceOnUse">
<stop stop-color="#9CABF6"/>
<stop offset="0.301576" stop-color="#3996F4"/>
<stop offset="0.749922" stop-color="#C2A5F8"/>
<stop offset="1" stop-color="#C295F4"/>
</linearGradient>
<linearGradient id="paint13_linear_19_229" x1="9.13375" y1="0.550057" x2="152.528" y2="130.677" gradientUnits="userSpaceOnUse">
<stop stop-color="#9CABF6"/>
<stop offset="0.301576" stop-color="#3996F4"/>
<stop offset="0.749922" stop-color="#C2A5F8"/>
<stop offset="1" stop-color="#C295F4"/>
</linearGradient>
</defs>
</svg>
