<svg width="207" height="48" viewBox="0 0 207 48" fill="none" xmlns="http://www.w3.org/2000/svg">
<path d="M0 12.6H18.8861V17.4666H12.3667V35.9333H6.4186V17.4666H0V12.6Z" fill="url(#paint0_linear_19_186)"/>
<path d="M24.7403 18.6666V22.3666C24.9195 21.3666 25.334 20.5444 25.9837 19.9C26.6334 19.2333 27.2607 18.8 27.8656 18.6C28.4705 18.4 29.0417 18.3 29.5794 18.3C29.9827 18.3 30.3748 18.3333 30.7556 18.4V24C30.1507 23.8444 29.4226 23.7666 28.5713 23.7666C27.4511 23.7666 26.5662 24.0889 25.9165 24.7333C25.2668 25.3778 24.9419 26.2333 24.9419 27.3V35.9333H19.1618V18.6666H24.7403Z" fill="url(#paint1_linear_19_186)"/>
<path d="M37.8172 27.2666C37.8172 28.5555 38.1756 29.6333 38.8925 30.5C39.6095 31.3666 40.5728 31.8 41.7826 31.8C42.9476 31.8 43.9109 31.4111 44.6726 30.6333C45.4344 29.8333 45.8152 28.7666 45.8152 27.4333C45.8152 26.0555 45.4344 24.9444 44.6726 24.1C43.9333 23.2555 42.9476 22.8333 41.7154 22.8333C40.528 22.8333 39.5758 23.2555 38.8589 24.1C38.1644 24.9444 37.8172 26 37.8172 27.2666ZM45.6808 18.6666H51.4609V35.9333H45.6808V33.5666C44.4934 35.3889 42.7347 36.3 40.4048 36.3C37.9404 36.3 35.9241 35.4444 34.3558 33.7333C32.7876 32 32.0035 29.8444 32.0035 27.2666C32.0035 24.7111 32.7652 22.5778 34.2886 20.8666C35.8345 19.1555 37.862 18.3 40.3712 18.3C41.4913 18.3 42.5219 18.5444 43.4628 19.0333C44.4038 19.5 45.1431 20.1444 45.6808 20.9666V18.6666Z" fill="url(#paint2_linear_19_186)"/>
<path d="M74.0441 18.6666L66.5838 35.9333H61.1061L53.5785 18.6666H59.8627L63.7945 29.6333L67.76 18.6666H74.0441Z" fill="url(#paint3_linear_19_186)"/>
<path d="M80.2503 27.2666C80.2503 28.5555 80.6088 29.6333 81.3257 30.5C82.0426 31.3666 83.006 31.8 84.2158 31.8C85.3807 31.8 86.3441 31.4111 87.1058 30.6333C87.8675 29.8333 88.2484 28.7666 88.2484 27.4333C88.2484 26.0555 87.8675 24.9444 87.1058 24.1C86.3665 23.2555 85.3807 22.8333 84.1485 22.8333C82.9612 22.8333 82.009 23.2555 81.2921 24.1C80.5976 24.9444 80.2503 26 80.2503 27.2666ZM88.114 18.6666H93.8941V35.9333H88.114V33.5666C86.9266 35.3889 85.1679 36.3 82.8379 36.3C80.3736 36.3 78.3572 35.4444 76.789 33.7333C75.2208 32 74.4366 29.8444 74.4366 27.2666C74.4366 24.7111 75.1984 22.5778 76.7218 20.8666C78.2676 19.1555 80.2951 18.3 82.8043 18.3C83.9245 18.3 84.9551 18.5444 85.896 19.0333C86.837 19.5 87.5763 20.1444 88.114 20.9666V18.6666Z" fill="url(#paint4_linear_19_186)"/>
<path d="M103.573 35.9333H97.7928V11.8333H103.573V35.9333Z" fill="url(#paint5_linear_19_186)"/>
<path d="M112.313 27.2666C112.313 28.5555 112.672 29.6333 113.389 30.5C114.105 31.3666 115.069 31.8 116.279 31.8C117.444 31.8 118.407 31.4111 119.169 30.6333C119.93 29.8333 120.311 28.7666 120.311 27.4333C120.311 26.0555 119.93 24.9444 119.169 24.1C118.429 23.2555 117.444 22.8333 116.211 22.8333C115.024 22.8333 114.072 23.2555 113.355 24.1C112.66 24.9444 112.313 26 112.313 27.2666ZM120.177 18.6666H125.957V35.9333H120.177V33.5666C118.989 35.3889 117.231 36.3 114.901 36.3C112.436 36.3 110.42 35.4444 108.852 33.7333C107.284 32 106.499 29.8444 106.499 27.2666C106.499 24.7111 107.261 22.5778 108.785 20.8666C110.33 19.1555 112.358 18.3 114.867 18.3C115.987 18.3 117.018 18.5444 117.959 19.0333C118.9 19.5 119.639 20.1444 120.177 20.9666V18.6666Z" fill="url(#paint6_linear_19_186)"/>
<path d="M129.251 33.2666C129.251 32.3555 129.576 31.6111 130.225 31.0333C130.875 30.4333 131.693 30.1333 132.678 30.1333C133.664 30.1333 134.493 30.4333 135.165 31.0333C135.837 31.6333 136.173 32.3778 136.173 33.2666C136.173 34.1333 135.837 34.8555 135.165 35.4333C134.493 36.0111 133.664 36.3 132.678 36.3C131.693 36.3 130.875 36.0111 130.225 35.4333C129.576 34.8555 129.251 34.1333 129.251 33.2666Z" fill="url(#paint7_linear_19_186)"/>
<path d="M141.186 33.7333C139.326 32.0222 138.397 29.8778 138.397 27.3C138.397 24.7222 139.326 22.5778 141.186 20.8666C143.045 19.1555 145.442 18.3 148.377 18.3C151.021 18.3 153.441 19.1778 155.636 20.9333C155.479 21.1778 155.02 21.8111 154.258 22.8333C153.519 23.8333 153.071 24.4555 152.914 24.7C151.704 23.6333 150.304 23.1 148.713 23.1C147.392 23.1 146.305 23.4889 145.454 24.2666C144.625 25.0444 144.21 26.0555 144.21 27.3C144.21 28.5444 144.625 29.5666 145.454 30.3666C146.305 31.1444 147.392 31.5333 148.713 31.5333C150.304 31.5333 151.704 31 152.914 29.9333C153.071 30.1778 153.519 30.8111 154.258 31.8333C155.02 32.8333 155.479 33.4555 155.636 33.7C153.463 35.4333 151.043 36.3 148.377 36.3C145.442 36.3 143.045 35.4444 141.186 33.7333Z" fill="url(#paint8_linear_19_186)"/>
<path d="M173.477 20.9333C175.404 22.6889 176.367 24.8111 176.367 27.3C176.367 29.7889 175.404 31.9111 173.477 33.6666C171.573 35.4222 169.265 36.3 166.554 36.3C163.844 36.3 161.525 35.4222 159.598 33.6666C157.694 31.9111 156.742 29.7889 156.742 27.3C156.742 24.8111 157.694 22.6889 159.598 20.9333C161.525 19.1778 163.844 18.3 166.554 18.3C169.265 18.3 171.573 19.1778 173.477 20.9333ZM163.496 24.2333C162.712 25.0333 162.32 26.0555 162.32 27.3C162.32 28.5444 162.712 29.5666 163.496 30.3666C164.303 31.1666 165.322 31.5666 166.554 31.5666C167.787 31.5666 168.795 31.1666 169.579 30.3666C170.385 29.5666 170.789 28.5444 170.789 27.3C170.789 26.0555 170.385 25.0333 169.579 24.2333C168.795 23.4111 167.787 23 166.554 23C165.322 23 164.303 23.4111 163.496 24.2333Z" fill="url(#paint9_linear_19_186)"/>
<path d="M197.864 22.9C196.296 22.9 195.512 24.1111 195.512 26.5333V35.9333H189.732V26.5C189.732 25.4778 189.541 24.6222 189.16 23.9333C188.802 23.2444 188.208 22.9 187.379 22.9C185.789 22.9 184.993 24.1111 184.993 26.5333V35.9333H179.213V18.6666H184.993V20.9666C185.441 20.1222 186.046 19.4666 186.808 19C187.592 18.5333 188.455 18.3 189.396 18.3C191.748 18.3 193.417 19.2111 194.403 21.0333C195.568 19.2111 197.382 18.3 199.847 18.3C201.012 18.3 202.009 18.5333 202.838 19C203.689 19.4666 204.328 20.1 204.753 20.9C205.201 21.7 205.526 22.5444 205.728 23.4333C205.929 24.3 206.03 25.2444 206.03 26.2666V35.9333H200.25V26.5C200.25 25.4778 200.06 24.6222 199.679 23.9333C199.298 23.2444 198.693 22.9 197.864 22.9Z" fill="url(#paint10_linear_19_186)"/>
<defs>
<linearGradient id="paint0_linear_19_186" x1="7.87375" y1="11.8333" x2="108.466" y2="123.886" gradientUnits="userSpaceOnUse">
<stop stop-color="#9CABF6"/>
<stop offset="0.301576" stop-color="#3996F4"/>
<stop offset="0.749922" stop-color="#C2A5F8"/>
<stop offset="1" stop-color="#C295F4"/>
</linearGradient>
<linearGradient id="paint1_linear_19_186" x1="7.87375" y1="11.8333" x2="108.466" y2="123.886" gradientUnits="userSpaceOnUse">
<stop stop-color="#9CABF6"/>
<stop offset="0.301576" stop-color="#3996F4"/>
<stop offset="0.749922" stop-color="#C2A5F8"/>
<stop offset="1" stop-color="#C295F4"/>
</linearGradient>
<linearGradient id="paint2_linear_19_186" x1="7.87375" y1="11.8333" x2="108.466" y2="123.886" gradientUnits="userSpaceOnUse">
<stop stop-color="#9CABF6"/>
<stop offset="0.301576" stop-color="#3996F4"/>
<stop offset="0.749922" stop-color="#C2A5F8"/>
<stop offset="1" stop-color="#C295F4"/>
</linearGradient>
<linearGradient id="paint3_linear_19_186" x1="7.87375" y1="11.8333" x2="108.466" y2="123.886" gradientUnits="userSpaceOnUse">
<stop stop-color="#9CABF6"/>
<stop offset="0.301576" stop-color="#3996F4"/>
<stop offset="0.749922" stop-color="#C2A5F8"/>
<stop offset="1" stop-color="#C295F4"/>
</linearGradient>
<linearGradient id="paint4_linear_19_186" x1="7.87375" y1="11.8333" x2="108.466" y2="123.886" gradientUnits="userSpaceOnUse">
<stop stop-color="#9CABF6"/>
<stop offset="0.301576" stop-color="#3996F4"/>
<stop offset="0.749922" stop-color="#C2A5F8"/>
<stop offset="1" stop-color="#C295F4"/>
</linearGradient>
<linearGradient id="paint5_linear_19_186" x1="7.87375" y1="11.8333" x2="108.466" y2="123.886" gradientUnits="userSpaceOnUse">
<stop stop-color="#9CABF6"/>
<stop offset="0.301576" stop-color="#3996F4"/>
<stop offset="0.749922" stop-color="#C2A5F8"/>
<stop offset="1" stop-color="#C295F4"/>
</linearGradient>
<linearGradient id="paint6_linear_19_186" x1="7.87375" y1="11.8333" x2="108.466" y2="123.886" gradientUnits="userSpaceOnUse">
<stop stop-color="#9CABF6"/>
<stop offset="0.301576" stop-color="#3996F4"/>
<stop offset="0.749922" stop-color="#C2A5F8"/>
<stop offset="1" stop-color="#C295F4"/>
</linearGradient>
<linearGradient id="paint7_linear_19_186" x1="7.87375" y1="11.8333" x2="108.466" y2="123.886" gradientUnits="userSpaceOnUse">
<stop stop-color="#9CABF6"/>
<stop offset="0.301576" stop-color="#3996F4"/>
<stop offset="0.749922" stop-color="#C2A5F8"/>
<stop offset="1" stop-color="#C295F4"/>
</linearGradient>
<linearGradient id="paint8_linear_19_186" x1="7.87375" y1="11.8333" x2="108.466" y2="123.886" gradientUnits="userSpaceOnUse">
<stop stop-color="#9CABF6"/>
<stop offset="0.301576" stop-color="#3996F4"/>
<stop offset="0.749922" stop-color="#C2A5F8"/>
<stop offset="1" stop-color="#C295F4"/>
</linearGradient>
<linearGradient id="paint9_linear_19_186" x1="7.87375" y1="11.8333" x2="108.466" y2="123.886" gradientUnits="userSpaceOnUse">
<stop stop-color="#9CABF6"/>
<stop offset="0.301576" stop-color="#3996F4"/>
<stop offset="0.749922" stop-color="#C2A5F8"/>
<stop offset="1" stop-color="#C295F4"/>
</linearGradient>
<linearGradient id="paint10_linear_19_186" x1="7.87375" y1="11.8333" x2="108.466" y2="123.886" gradientUnits="userSpaceOnUse">
<stop stop-color="#9CABF6"/>
<stop offset="0.301576" stop-color="#3996F4"/>
<stop offset="0.749922" stop-color="#C2A5F8"/>
<stop offset="1" stop-color="#C295F4"/>
</linearGradient>
</defs>
</svg>
