<svg width="204" height="33" viewBox="0 0 204 33" fill="none" xmlns="http://www.w3.org/2000/svg">
<path d="M72.4051 7.97437H66.7274V25.2708H62.6202V7.96973H56.9704V4.70746H72.4051V7.97437Z" fill="url(#paint0_linear_19_174)"/>
<path d="M78.3015 9.79095C79.2911 9.20076 80.3969 8.90335 81.6189 8.90335V13.2995H80.4247C77.414 13.2995 75.9133 14.6983 75.9133 17.4912V25.2658H71.8061V9.13571H75.9133V12.2214C76.5172 11.1944 77.3118 10.3811 78.3015 9.79095Z" fill="url(#paint1_linear_19_174)"/>
<path d="M98.8469 9.13577V25.2659H94.7396V22.0035C94.3122 23.091 93.6107 23.9414 92.6302 24.5501C91.6499 25.1637 90.521 25.4656 89.2385 25.4656C87.3755 25.4656 85.8886 24.8522 84.7829 23.6301C83.677 22.4079 83.1242 20.6977 83.1242 18.5043V9.13577H87.1989V18.0443C87.1989 19.3269 87.5287 20.3213 88.1886 21.0277C88.8483 21.7387 89.7403 22.0919 90.8647 22.0919C92.0494 22.0919 92.988 21.7154 93.6896 20.958C94.3865 20.2005 94.7396 19.113 94.7396 17.6957V9.13577H98.8469Z" fill="url(#paint2_linear_19_174)"/>
<path d="M111.229 10.419C112.414 11.4088 113.152 12.7286 113.44 14.3783H109.598C109.44 13.6023 109.092 12.9796 108.548 12.5149C108.004 12.0501 107.294 11.8178 106.425 11.8178C105.728 11.8178 105.184 11.9851 104.794 12.3104C104.404 12.6403 104.213 13.0865 104.213 13.6487C104.213 14.0949 104.366 14.4526 104.678 14.7269C104.989 15.001 105.375 15.2102 105.844 15.3681C106.308 15.5215 106.978 15.7074 107.851 15.9212C109.073 16.1953 110.067 16.4788 110.834 16.7809C111.6 17.083 112.26 17.557 112.813 18.2075C113.366 18.8582 113.645 19.7365 113.645 20.8425C113.645 22.2226 113.106 23.338 112.028 24.193C110.95 25.048 109.5 25.4756 107.674 25.4756C105.579 25.4756 103.902 25.0062 102.638 24.0629C101.374 23.1195 100.608 21.7765 100.338 20.0291H104.269C104.366 20.8239 104.715 21.4512 105.314 21.9066C105.914 22.3621 106.703 22.5897 107.674 22.5897C108.371 22.5897 108.906 22.4178 109.277 22.0786C109.644 21.7393 109.83 21.2978 109.83 20.7541C109.83 20.2894 109.672 19.9084 109.352 19.6203C109.031 19.3275 108.632 19.1045 108.158 18.9511C107.679 18.7977 107.005 18.6118 106.132 18.398C104.929 18.1285 103.953 17.8497 103.205 17.5663C102.457 17.2874 101.816 16.832 101.286 16.214C100.752 15.5913 100.487 14.7408 100.487 13.6534C100.487 12.2546 101.021 11.1207 102.09 10.2471C103.158 9.37342 104.631 8.9366 106.518 8.9366C108.474 8.93194 110.044 9.42918 111.229 10.419Z" fill="url(#paint3_linear_19_174)"/>
<path d="M124.043 21.7438V25.2662H121.887C120.085 25.2662 118.7 24.8294 117.738 23.9558C116.777 23.0821 116.298 21.6275 116.298 19.5875V12.6029H114.054V9.13615H116.298V5.14895H120.401V9.13615H124.011V12.6029H120.401V19.6478C120.401 20.4239 120.554 20.9677 120.865 21.279C121.177 21.5904 121.697 21.7438 122.436 21.7438H124.043Z" fill="url(#paint4_linear_19_174)"/>
<path d="M142.005 22.5478C141.48 23.4307 140.705 24.1418 139.677 24.6761C138.651 25.2105 137.396 25.4754 135.923 25.4754C134.469 25.4754 133.168 25.2291 132.021 24.7319C130.872 24.2347 129.958 23.5236 129.27 22.5896C128.582 21.6555 128.188 20.5728 128.089 19.3274H132.458C132.555 20.1638 132.89 20.8562 133.461 21.4092C134.032 21.9622 134.795 22.241 135.747 22.241C136.602 22.241 137.257 22.0134 137.713 21.5579C138.167 21.1025 138.395 20.5123 138.395 19.7967C138.395 19.1553 138.209 18.6256 137.842 18.2074C137.475 17.7892 137.006 17.4546 136.443 17.2036C135.882 16.9527 135.106 16.6599 134.116 16.3299C132.833 15.9024 131.788 15.4796 130.97 15.0612C130.157 14.643 129.461 14.039 128.889 13.2396C128.317 12.445 128.029 11.404 128.029 10.1214C128.029 8.35552 128.666 6.9614 129.934 5.94368C131.207 4.92597 132.89 4.41479 134.985 4.41479C137.16 4.41479 138.892 4.93991 140.179 5.9855C141.466 7.0311 142.204 8.42987 142.377 10.1772H137.953C137.837 9.4383 137.526 8.83417 137.02 8.35553C136.514 7.88151 135.826 7.63987 134.952 7.63987C134.195 7.63987 133.586 7.83969 133.118 8.2347C132.653 8.63435 132.42 9.21059 132.42 9.96807C132.42 10.5722 132.601 11.0694 132.959 11.4691C133.316 11.8687 133.772 12.194 134.33 12.445C134.883 12.6959 135.635 12.9794 136.588 13.2907C137.908 13.7554 138.981 14.1922 139.803 14.6012C140.63 15.0101 141.332 15.619 141.912 16.4369C142.493 17.2547 142.786 18.3189 142.786 19.6387C142.79 20.6982 142.53 21.6601 142.005 22.5478Z" fill="url(#paint5_linear_19_174)"/>
<path d="M167.935 9.13577L163.595 25.2659H159.057L155.59 13.5319L152.04 25.2659H147.497L143.189 9.13577H147.297L149.917 21.5993L153.5 9.13577H157.839L161.45 21.5993L164.098 9.13577H167.935Z" fill="url(#paint6_linear_19_174)"/>
<path d="M178.446 9.89391C179.417 10.5352 180.104 11.3996 180.513 12.487V9.13643H184.587V25.2665H180.513V21.8881C180.104 22.9754 179.417 23.8445 178.446 24.4951C177.475 25.1456 176.309 25.4709 174.951 25.4709C173.595 25.4709 172.369 25.141 171.281 24.4811C170.194 23.8213 169.344 22.864 168.734 21.6139C168.121 20.3639 167.82 18.8907 167.82 17.2037C167.82 15.5168 168.126 14.0438 168.734 12.7937C169.348 11.5436 170.194 10.5863 171.281 9.92644C172.369 9.26655 173.59 8.93661 174.951 8.93661C176.309 8.93196 177.475 9.25261 178.446 9.89391ZM173.144 13.765C172.369 14.6014 171.978 15.7446 171.978 17.1991C171.978 18.6537 172.364 19.7968 173.144 20.6194C173.925 21.4419 174.951 21.8556 176.229 21.8556C177.47 21.8556 178.496 21.4326 179.301 20.5869C180.104 19.7412 180.508 18.6119 180.508 17.1946C180.508 15.7585 180.104 14.6153 179.301 13.7743C178.496 12.9284 177.47 12.5056 176.229 12.5056C174.951 12.5149 173.92 12.9331 173.144 13.765Z" fill="url(#paint7_linear_19_174)"/>
<path d="M200.538 9.92148C201.625 10.5814 202.476 11.5387 203.085 12.7888C203.698 14.0389 204 15.5119 204 17.1988C204 18.8857 203.693 20.3588 203.085 21.6089C202.471 22.859 201.625 23.8162 200.538 24.4762C199.452 25.1361 198.229 25.466 196.873 25.466C195.515 25.466 194.354 25.1407 193.392 24.4901C192.431 23.8395 191.748 22.9705 191.338 21.8832V32.9478H187.237V9.13612H191.338V12.4867C191.748 11.3992 192.431 10.5349 193.392 9.89359C194.354 9.25229 195.511 8.93164 196.873 8.93164C198.229 8.93164 199.452 9.26159 200.538 9.92148ZM192.514 13.7786C191.711 14.6243 191.307 15.7629 191.307 17.1988C191.307 18.6161 191.711 19.7454 192.514 20.5912C193.318 21.437 194.345 21.8599 195.586 21.8599C196.868 21.8599 197.895 21.4463 198.671 20.6238C199.447 19.7966 199.837 18.6581 199.837 17.2035C199.837 15.7489 199.447 14.6011 198.671 13.7692C197.895 12.9328 196.868 12.5192 195.586 12.5192C194.345 12.5146 193.323 12.9374 192.514 13.7786Z" fill="url(#paint8_linear_19_174)"/>
<path d="M17.6779 20.7029C16.8276 21.4231 15.9449 21.8507 14.8205 22.097C14.3373 22.2177 13.8355 22.2828 13.329 22.2828C9.88618 22.2828 6.84756 19.5689 6.55949 16.2415C6.29466 14.4152 6.88472 12.5053 8.18102 11.0043C9.11956 9.92155 10.3183 9.17336 11.6053 8.83413V11.2274L20.2658 5.61369L11.6099 0V2.23525C6.88472 2.83008 2.93081 5.82746 1.05374 10.3584C-1.05099 15.4376 0.0455143 21.0002 3.91116 24.8713C6.4294 27.39 9.77466 28.7748 13.3337 28.7748C16.7347 28.7748 21.2554 27.1902 23.323 24.1603C24.8794 21.8738 28.0947 15.4376 29.1818 13.2256L17.6779 20.7029Z" fill="url(#paint9_linear_19_174)"/>
<path d="M42.4372 6.02241C39.919 3.50369 36.5737 2.11885 33.0148 2.11885C29.6136 2.11885 25.0929 3.70351 23.0254 6.72876C21.4642 9.01514 18.2537 15.456 17.1665 17.6634L28.6659 10.1909C29.5162 9.47055 30.4036 9.04302 31.5233 8.79673C32.0065 8.67591 32.5083 8.61084 33.0101 8.61084C36.4529 8.61084 39.4915 11.3247 39.7796 14.6521C40.0445 16.4831 39.4544 18.3883 38.1581 19.8894C37.2196 20.9721 36.0209 21.7203 34.7338 22.0596V19.6662L26.0779 25.28L34.7384 30.8937V28.6583C39.459 28.0636 43.4175 25.0708 45.2947 20.5352C47.3947 15.456 46.3028 9.89343 42.4372 6.02241Z" fill="url(#paint10_linear_19_174)"/>
<defs>
<linearGradient id="paint0_linear_19_174" x1="7.79618" y1="7.26853e-06" x2="141.377" y2="109.408" gradientUnits="userSpaceOnUse">
<stop stop-color="#9CABF6"/>
<stop offset="0.301576" stop-color="#3996F4"/>
<stop offset="0.749922" stop-color="#C2A5F8"/>
<stop offset="1" stop-color="#C295F4"/>
</linearGradient>
<linearGradient id="paint1_linear_19_174" x1="7.79618" y1="7.26853e-06" x2="141.377" y2="109.408" gradientUnits="userSpaceOnUse">
<stop stop-color="#9CABF6"/>
<stop offset="0.301576" stop-color="#3996F4"/>
<stop offset="0.749922" stop-color="#C2A5F8"/>
<stop offset="1" stop-color="#C295F4"/>
</linearGradient>
<linearGradient id="paint2_linear_19_174" x1="7.79618" y1="7.26853e-06" x2="141.377" y2="109.408" gradientUnits="userSpaceOnUse">
<stop stop-color="#9CABF6"/>
<stop offset="0.301576" stop-color="#3996F4"/>
<stop offset="0.749922" stop-color="#C2A5F8"/>
<stop offset="1" stop-color="#C295F4"/>
</linearGradient>
<linearGradient id="paint3_linear_19_174" x1="7.79618" y1="7.26853e-06" x2="141.377" y2="109.408" gradientUnits="userSpaceOnUse">
<stop stop-color="#9CABF6"/>
<stop offset="0.301576" stop-color="#3996F4"/>
<stop offset="0.749922" stop-color="#C2A5F8"/>
<stop offset="1" stop-color="#C295F4"/>
</linearGradient>
<linearGradient id="paint4_linear_19_174" x1="7.79618" y1="7.26853e-06" x2="141.377" y2="109.408" gradientUnits="userSpaceOnUse">
<stop stop-color="#9CABF6"/>
<stop offset="0.301576" stop-color="#3996F4"/>
<stop offset="0.749922" stop-color="#C2A5F8"/>
<stop offset="1" stop-color="#C295F4"/>
</linearGradient>
<linearGradient id="paint5_linear_19_174" x1="7.79618" y1="7.26853e-06" x2="141.377" y2="109.408" gradientUnits="userSpaceOnUse">
<stop stop-color="#9CABF6"/>
<stop offset="0.301576" stop-color="#3996F4"/>
<stop offset="0.749922" stop-color="#C2A5F8"/>
<stop offset="1" stop-color="#C295F4"/>
</linearGradient>
<linearGradient id="paint6_linear_19_174" x1="7.79618" y1="7.26853e-06" x2="141.377" y2="109.408" gradientUnits="userSpaceOnUse">
<stop stop-color="#9CABF6"/>
<stop offset="0.301576" stop-color="#3996F4"/>
<stop offset="0.749922" stop-color="#C2A5F8"/>
<stop offset="1" stop-color="#C295F4"/>
</linearGradient>
<linearGradient id="paint7_linear_19_174" x1="7.79618" y1="7.26853e-06" x2="141.377" y2="109.408" gradientUnits="userSpaceOnUse">
<stop stop-color="#9CABF6"/>
<stop offset="0.301576" stop-color="#3996F4"/>
<stop offset="0.749922" stop-color="#C2A5F8"/>
<stop offset="1" stop-color="#C295F4"/>
</linearGradient>
<linearGradient id="paint8_linear_19_174" x1="7.79618" y1="7.26853e-06" x2="141.377" y2="109.408" gradientUnits="userSpaceOnUse">
<stop stop-color="#9CABF6"/>
<stop offset="0.301576" stop-color="#3996F4"/>
<stop offset="0.749922" stop-color="#C2A5F8"/>
<stop offset="1" stop-color="#C295F4"/>
</linearGradient>
<linearGradient id="paint9_linear_19_174" x1="7.79618" y1="7.26853e-06" x2="141.377" y2="109.408" gradientUnits="userSpaceOnUse">
<stop stop-color="#9CABF6"/>
<stop offset="0.301576" stop-color="#3996F4"/>
<stop offset="0.749922" stop-color="#C2A5F8"/>
<stop offset="1" stop-color="#C295F4"/>
</linearGradient>
<linearGradient id="paint10_linear_19_174" x1="7.79618" y1="7.26853e-06" x2="141.377" y2="109.408" gradientUnits="userSpaceOnUse">
<stop stop-color="#9CABF6"/>
<stop offset="0.301576" stop-color="#3996F4"/>
<stop offset="0.749922" stop-color="#C2A5F8"/>
<stop offset="1" stop-color="#C295F4"/>
</linearGradient>
</defs>
</svg>
