<svg width="82" height="43" viewBox="0 0 82 43" fill="none" xmlns="http://www.w3.org/2000/svg">
<path d="M3.60163 34.4331H4.76685L8.02732 41.9096H6.48796L5.78241 40.1989H2.50055L1.81638 41.9096H0.309082L3.60163 34.4331ZM5.31205 39.0584L4.14682 36.0171L2.96023 39.0584H5.31205ZM9.47215 34.4331H11.0222L13.0853 40.0827L15.2127 34.4331H16.6665L13.6092 41.9096H12.4439L9.47215 34.4331ZM21.4804 34.4331H22.6455L25.906 41.9096H24.3666L23.6612 40.1989H20.3793L19.6952 41.9096H18.1878L21.4804 34.4331ZM23.1908 39.0584L22.0255 36.0171L20.839 39.0584H23.1908ZM28.8851 34.4331H30.2322V40.7057H33.4499V41.9096H28.8851V34.4331ZM39.0146 34.4331H40.1797L43.4402 41.9096H41.9008L41.1952 40.1989H37.9135L37.2294 41.9096H35.722L39.0146 34.4331ZM40.725 39.0584L39.5597 36.0171L38.3732 39.0584H40.725ZM46.4193 34.4331H48.2046L51.8713 39.9877H51.8927V34.4331H53.2396V41.9096H51.5292L47.7876 36.1755H47.7664V41.9096H46.4193V34.4331ZM62.261 36.1861C61.9831 35.8904 61.7123 35.6933 61.4485 35.5947C61.1919 35.4961 60.9318 35.4469 60.6682 35.4469C60.2763 35.4469 59.9199 35.5173 59.5991 35.6581C59.2856 35.7918 59.0148 35.9819 58.7866 36.2283C58.5587 36.4677 58.3806 36.7493 58.2522 37.0731C58.1311 37.3969 58.0705 37.7454 58.0705 38.1185C58.0705 38.5198 58.1311 38.8894 58.2522 39.2273C58.3806 39.5653 58.5587 39.8574 58.7866 40.1038C59.0148 40.3502 59.2856 40.5438 59.5991 40.6846C59.9199 40.8254 60.2763 40.8958 60.6682 40.8958C60.9745 40.8958 61.2703 40.8254 61.5554 40.6846C61.8476 40.5368 62.1184 40.3045 62.3679 39.9877L63.4797 40.7691C63.1375 41.2337 62.7207 41.5717 62.2288 41.7829C61.7372 41.9941 61.2133 42.0997 60.6575 42.0997C60.0731 42.0997 59.5349 42.0081 59.0433 41.8251C58.5587 41.635 58.1382 41.371 57.7818 41.0331C57.4326 40.6881 57.1583 40.2763 56.9586 39.7976C56.7592 39.3189 56.6595 38.7873 56.6595 38.203C56.6595 37.6046 56.7592 37.0625 56.9586 36.5768C57.1583 36.084 57.4326 35.6651 57.7818 35.3201C58.1382 34.9752 58.5587 34.7112 59.0433 34.5281C59.5349 34.3381 60.0731 34.243 60.6575 34.243C61.1706 34.243 61.6446 34.3345 62.0792 34.5176C62.5212 34.6936 62.9309 34.9963 63.3087 35.4257L62.261 36.1861ZM66.5218 34.4331H67.8686V37.411H71.407V34.4331H72.754V41.9096H71.407V38.6149H67.8686V41.9096H66.5218V34.4331ZM76.5834 34.4331H81.5969V35.6369H77.9302V37.4744H81.4046V38.6782H77.9302V40.7057H81.7894V41.9096H76.5834V34.4331Z" fill="url(#paint0_linear_19_230)"/>
<path d="M10.0133 28.5246H4.41243C3.08444 28.5246 2.42045 28.5246 2.02279 28.2703C1.59301 27.9955 1.32192 27.5344 1.29317 27.0295C1.26657 26.5622 1.59551 25.9925 2.25341 24.8531L14.5163 3.61277C15.1837 2.45669 15.5175 1.87864 15.9421 1.66348C16.4008 1.43098 16.9448 1.43058 17.4039 1.66242C17.8287 1.87697 18.1633 2.45453 18.8324 3.60965L21.6607 8.49184C22.1474 9.33182 22.3906 9.75179 22.4977 10.1949C22.614 10.6773 22.6142 11.1798 22.4982 11.6622C22.3917 12.1054 22.1487 12.5257 21.6629 13.3661L14.3298 26.0493C13.8369 26.9021 13.5904 27.3283 13.2527 27.6471C12.885 27.994 12.4393 28.2497 11.952 28.393C11.5043 28.5246 11.0073 28.5246 10.0133 28.5246Z" fill="url(#paint1_linear_19_230)"/>
<path d="M29.9952 28.5248H23.5017C22.1616 28.5248 21.4916 28.5248 21.0927 28.2683C20.6618 27.9913 20.3914 27.5267 20.366 27.0194C20.3422 26.5499 20.6795 25.9779 21.3538 24.8341L24.5953 19.3358C25.2612 18.2064 25.5942 17.6416 26.0158 17.4301C26.4713 17.2015 27.01 17.2011 27.4659 17.429C27.8879 17.6401 28.2216 18.2043 28.8891 19.3328L32.1412 24.8309C32.8182 25.9756 33.1567 26.5479 33.1336 27.0177C33.1086 27.5256 32.8384 27.9904 32.4071 28.268C32.0082 28.5248 31.3373 28.5248 29.9952 28.5248Z" fill="url(#paint2_linear_19_230)"/>
<path d="M58.1151 28.5246H52.5143C51.1864 28.5246 50.5224 28.5246 50.1246 28.2703C49.6949 27.9955 49.4238 27.5344 49.395 27.0295C49.3686 26.5622 49.6974 25.9925 50.3553 24.8531L62.6182 3.61277C63.2856 2.45669 63.6194 1.87864 64.0439 1.66348C64.5027 1.43098 65.0467 1.43058 65.5057 1.66242C65.9307 1.87697 66.2652 2.45453 66.9344 3.60965L69.7627 8.49184C70.2492 9.33182 70.4926 9.75179 70.5995 10.1949C70.716 10.6773 70.7162 11.1798 70.6002 11.6622C70.4937 12.1054 70.2506 12.5257 69.7648 13.3661L62.4316 26.0493C61.9387 26.9021 61.6923 27.3283 61.3546 27.6471C60.987 27.994 60.5411 28.2497 60.0539 28.393C59.6062 28.5246 59.1092 28.5246 58.1151 28.5246Z" fill="url(#paint3_linear_19_230)"/>
<path d="M78.0987 28.5248H71.6051C70.2651 28.5248 69.5951 28.5248 69.1963 28.2683C68.7652 27.9913 68.4948 27.5267 68.4695 27.0194C68.4459 26.5499 68.7829 25.9779 69.4574 24.8341L72.6989 19.3358C73.3647 18.2064 73.6976 17.6416 74.1192 17.4301C74.5748 17.2015 75.1135 17.2011 75.5694 17.429C75.9912 17.6401 76.325 18.2043 76.9926 19.3328L80.2448 24.8309C80.9218 25.9756 81.2601 26.5479 81.2371 27.0177C81.2121 27.5256 80.942 27.9904 80.5107 28.268C80.1117 28.5248 79.4407 28.5248 78.0987 28.5248Z" fill="url(#paint4_linear_19_230)"/>
<path d="M34.3122 0.619141H28.5664C27.2396 0.619139 26.5762 0.619139 26.1787 0.873211C25.7491 1.14779 25.4779 1.60845 25.4488 2.11311C25.4218 2.58008 25.7499 3.14961 26.4062 4.28868L38.6229 25.4946C39.3041 26.6768 39.6446 27.2681 40.075 27.4834C40.5398 27.7161 41.0901 27.7111 41.5507 27.47C41.9768 27.2468 42.3063 26.6497 42.9653 25.4552L45.8917 20.1514C46.3537 19.3144 46.5846 18.8956 46.6826 18.4567C46.7893 17.9789 46.7825 17.4831 46.6627 17.0082C46.5526 16.5721 46.3103 16.1598 45.8256 15.3354L38.6107 3.06348C38.1155 2.22109 37.8679 1.7999 37.5309 1.48511C37.1639 1.14249 36.7203 0.890283 36.2364 0.748969C35.7915 0.619141 35.2982 0.619141 34.3122 0.619141Z" fill="url(#paint5_linear_19_230)"/>
<path d="M54.1601 0.619141H47.6573C46.3185 0.619141 45.6491 0.619141 45.2504 0.875358C44.8195 1.15224 44.5491 1.61637 44.5234 2.12348C44.4994 2.59277 44.8356 3.16448 45.5085 4.30794L48.7545 9.82584C49.4206 10.958 49.7535 11.5242 50.1755 11.736C50.6314 11.965 51.1706 11.9653 51.6269 11.737C52.049 11.5257 52.3829 10.9601 53.0506 9.82887L56.3073 4.31098C56.9825 3.16683 57.3203 2.59475 57.2967 2.12512C57.2715 1.61762 57.0011 1.15293 56.5702 0.875692C56.1713 0.619142 55.5009 0.619141 54.1601 0.619141Z" fill="url(#paint6_linear_19_230)"/>
<defs>
<linearGradient id="paint0_linear_19_230" x1="3.42298" y1="0.61915" x2="86.9296" y2="22.3176" gradientUnits="userSpaceOnUse">
<stop stop-color="#9CABF6"/>
<stop offset="0.301576" stop-color="#3996F4"/>
<stop offset="0.749922" stop-color="#C2A5F8"/>
<stop offset="1" stop-color="#C295F4"/>
</linearGradient>
<linearGradient id="paint1_linear_19_230" x1="3.42298" y1="0.61915" x2="86.9296" y2="22.3176" gradientUnits="userSpaceOnUse">
<stop stop-color="#9CABF6"/>
<stop offset="0.301576" stop-color="#3996F4"/>
<stop offset="0.749922" stop-color="#C2A5F8"/>
<stop offset="1" stop-color="#C295F4"/>
</linearGradient>
<linearGradient id="paint2_linear_19_230" x1="3.42298" y1="0.61915" x2="86.9296" y2="22.3176" gradientUnits="userSpaceOnUse">
<stop stop-color="#9CABF6"/>
<stop offset="0.301576" stop-color="#3996F4"/>
<stop offset="0.749922" stop-color="#C2A5F8"/>
<stop offset="1" stop-color="#C295F4"/>
</linearGradient>
<linearGradient id="paint3_linear_19_230" x1="3.42298" y1="0.61915" x2="86.9296" y2="22.3176" gradientUnits="userSpaceOnUse">
<stop stop-color="#9CABF6"/>
<stop offset="0.301576" stop-color="#3996F4"/>
<stop offset="0.749922" stop-color="#C2A5F8"/>
<stop offset="1" stop-color="#C295F4"/>
</linearGradient>
<linearGradient id="paint4_linear_19_230" x1="3.42298" y1="0.61915" x2="86.9296" y2="22.3176" gradientUnits="userSpaceOnUse">
<stop stop-color="#9CABF6"/>
<stop offset="0.301576" stop-color="#3996F4"/>
<stop offset="0.749922" stop-color="#C2A5F8"/>
<stop offset="1" stop-color="#C295F4"/>
</linearGradient>
<linearGradient id="paint5_linear_19_230" x1="3.42298" y1="0.61915" x2="86.9296" y2="22.3176" gradientUnits="userSpaceOnUse">
<stop stop-color="#9CABF6"/>
<stop offset="0.301576" stop-color="#3996F4"/>
<stop offset="0.749922" stop-color="#C2A5F8"/>
<stop offset="1" stop-color="#C295F4"/>
</linearGradient>
<linearGradient id="paint6_linear_19_230" x1="3.42298" y1="0.61915" x2="86.9296" y2="22.3176" gradientUnits="userSpaceOnUse">
<stop stop-color="#9CABF6"/>
<stop offset="0.301576" stop-color="#3996F4"/>
<stop offset="0.749922" stop-color="#C2A5F8"/>
<stop offset="1" stop-color="#C295F4"/>
</linearGradient>
</defs>
</svg>
