<svg width="165" height="38" viewBox="0 0 165 38" fill="none" xmlns="http://www.w3.org/2000/svg">
<path d="M129.718 18.9827C129.718 18.0135 129.718 17.1019 129.686 16.26C129.665 15.4657 129.586 14.674 129.451 13.8911C129.324 13.1761 129.1 12.4818 128.785 11.8272C128.452 11.1523 128.008 10.5382 127.47 10.0109C126.708 9.23192 125.801 8.60848 124.8 8.17537C123.717 7.73779 122.557 7.52087 121.389 7.53739C120.216 7.52227 119.052 7.73911 117.963 8.17537C116.956 8.60257 116.044 9.2233 115.277 10.0022C114.741 10.5292 114.298 11.1434 113.968 11.8185C113.656 12.4732 113.435 13.1677 113.313 13.8823C113.18 14.6655 113.104 15.4572 113.086 16.2512C113.065 17.0932 113.054 18.0048 113.059 18.974C113.065 19.9432 113.059 20.8478 113.086 21.695C113.104 22.4891 113.18 23.2807 113.313 24.0639C113.435 24.7786 113.656 25.473 113.968 26.1278C114.299 26.8021 114.742 27.4161 115.277 27.9441C116.042 28.7236 116.956 29.3434 117.963 29.7674C119.051 30.2065 120.215 30.4246 121.389 30.4089C122.557 30.426 123.718 30.2079 124.8 29.7674C125.801 29.34 126.709 28.7205 127.47 27.9441C128.007 27.4157 128.451 26.8019 128.785 26.1278C129.1 25.4732 129.324 24.7788 129.451 24.0639C129.585 23.2832 129.662 22.4938 129.683 21.702C129.709 20.8548 129.721 19.9484 129.714 18.981L129.718 18.9827ZM125.314 18.9827C125.314 20.0565 125.298 20.9507 125.261 21.6619C125.241 22.2461 125.182 22.8283 125.087 23.405C125.021 23.7892 124.904 24.1628 124.737 24.5154C124.602 24.7996 124.425 25.0622 124.213 25.2945C123.885 25.6691 123.478 25.9667 123.021 26.1661C122.507 26.3855 121.953 26.4971 121.394 26.4939C120.832 26.4963 120.275 26.3848 119.758 26.1661C119.29 25.9705 118.872 25.6726 118.535 25.2945C118.321 25.0632 118.144 24.8004 118.01 24.5154C117.849 24.1624 117.737 23.7887 117.678 23.405C117.585 22.828 117.527 22.2459 117.504 21.6619C117.472 20.9507 117.456 20.0576 117.456 18.9827C117.456 17.909 117.472 17.013 117.504 16.3018C117.527 15.7178 117.585 15.1357 117.678 14.5587C117.737 14.175 117.849 13.8013 118.01 13.4483C118.145 13.1635 118.321 12.9008 118.535 12.6691C118.873 12.2916 119.29 11.9938 119.758 11.7976C120.275 11.5764 120.832 11.4648 121.394 11.4699C121.953 11.4641 122.508 11.5757 123.021 11.7976C123.477 11.9975 123.884 12.2951 124.213 12.6691C124.425 12.9018 124.602 13.1644 124.737 13.4483C124.904 13.8009 125.021 14.1745 125.087 14.5587C125.182 15.1354 125.241 15.7176 125.261 16.3018C125.3 17.0112 125.314 17.9072 125.314 18.9827Z" fill="url(#paint0_linear_19_234)"/>
<path d="M164.811 8.11958C164.809 7.90761 164.637 7.73625 164.424 7.73435H160.791C160.578 7.73531 160.406 7.90722 160.405 8.11958V21.5067L151.544 7.84243C151.485 7.75004 151.432 7.73435 151.301 7.73435H147.932C147.72 7.73717 147.549 7.908 147.546 8.11958V29.8423C147.549 30.0536 147.72 30.2239 147.932 30.2258H151.563C151.775 30.2249 151.947 30.0537 151.948 29.8423V16.4203L160.81 30.116C160.871 30.2084 160.92 30.2241 161.053 30.2241H164.421C164.633 30.2231 164.805 30.0523 164.807 29.8406L164.811 8.11958Z" fill="url(#paint1_linear_19_234)"/>
<path d="M140.456 8.11958C140.455 7.90722 140.282 7.73531 140.069 7.73435H136.439C136.227 7.73531 136.054 7.90722 136.053 8.11958V29.8406C136.054 30.0529 136.227 30.2249 136.439 30.2258H140.069C140.282 30.2249 140.455 30.0529 140.456 29.8406V8.11958Z" fill="url(#paint2_linear_19_234)"/>
<path d="M97.0023 18.9827C97.0023 17.902 97.0145 17.0025 97.046 16.2861C97.0673 15.7019 97.1257 15.1197 97.2207 14.543C97.5563 12.6081 99.0418 11.4664 100.938 11.4664C102.175 11.4768 103.297 11.9335 104.014 12.9724C104.338 13.4574 104.575 13.9955 104.713 14.5621C104.723 14.6218 104.778 14.6635 104.839 14.658H109.112C109.173 14.658 109.195 14.6162 109.185 14.5569C108.718 11.9196 107.308 9.55067 104.816 8.37755C103.591 7.81193 102.254 7.52892 100.905 7.54957C98.4988 7.54957 96.4721 8.37116 94.8247 10.0143C93.8841 10.9286 93.2422 12.1048 92.9827 13.389C92.7311 14.6534 92.6041 16.5173 92.6017 18.9809C92.5994 21.4446 92.7264 23.3079 92.9827 24.5711C93.24 25.857 93.8801 27.0355 94.8195 27.9528C96.4657 29.5948 98.4924 30.4158 100.899 30.4158C102.249 30.4362 103.585 30.1538 104.811 29.5896C107.303 28.4164 108.713 26.0475 109.18 23.4102C109.19 23.3492 109.168 23.3091 109.106 23.3091H104.832C104.771 23.3028 104.716 23.3448 104.706 23.405C104.568 23.971 104.331 24.5084 104.007 24.993C103.29 26.0388 102.168 26.4903 100.931 26.499C99.0348 26.499 97.5493 25.359 97.2137 23.4242C97.1188 22.8474 97.0604 22.2652 97.039 21.681C97.0145 20.9611 97.0023 20.0599 97.0023 18.9827Z" fill="url(#paint3_linear_19_234)"/>
<path d="M51.8714 8.11958C51.8704 7.90722 51.698 7.73531 51.4851 7.73435H47.8553C47.6424 7.73531 47.47 7.90722 47.4691 8.11958V29.8423C47.471 30.054 47.6431 30.2249 47.8553 30.226H51.4851C51.6974 30.2249 51.8694 30.054 51.8714 29.8423V23.466L54.7846 19.992L60.7685 30.1108C60.8146 30.1854 60.8975 30.2294 60.9852 30.226H65.3963C65.599 30.226 65.6357 30.1003 65.5343 29.9277L57.6997 16.68L64.8877 8.07949C65.0328 7.90518 64.9716 7.73958 64.7444 7.73958H59.9227C59.864 7.73614 59.8075 7.76234 59.7724 7.80931L51.8714 17.2605V8.11958Z" fill="url(#paint4_linear_19_234)"/>
<path d="M78.3167 26.499C76.2737 26.499 74.4212 24.613 74.4212 22.3609V8.11958C74.4203 7.90722 74.2479 7.73531 74.035 7.73435H70.4052C70.1923 7.73531 70.0199 7.90722 70.019 8.11958V22.3051C70.019 27.2643 73.7379 30.4158 78.3167 30.4158C82.8955 30.4158 86.6145 27.2643 86.6145 22.3051V8.11958C86.6126 7.90761 86.4408 7.73625 86.2282 7.73435H82.5967C82.3844 7.73626 82.2131 7.9079 82.2122 8.11958V22.3609C82.2122 24.6112 80.358 26.499 78.3167 26.499Z" fill="url(#paint5_linear_19_234)"/>
<path fill-rule="evenodd" clip-rule="evenodd" d="M10.9821 18.9827L22.2508 30.2241L29.3637 23.1296C30.6356 21.9873 32.5814 22.0381 33.7916 23.2452C35.0018 24.4523 35.0528 26.3931 33.9075 27.6617L24.521 37.0257C23.2602 38.2625 21.238 38.2625 19.9772 37.0257L6.43478 23.5148V31.5453C6.43478 33.3177 4.9943 34.7544 3.21739 34.7544C1.44047 34.7544 0 33.3177 0 31.5453V6.40956C0 4.63723 1.44047 3.20048 3.21739 3.20048C4.9943 3.20048 6.43478 4.63723 6.43478 6.40956V14.4401L19.9754 0.932679C21.2359 -0.305034 23.2588 -0.305034 24.5193 0.932679L33.9128 10.295C35.058 11.5636 35.0071 13.5044 33.7969 14.7114C32.5866 15.9185 30.6408 15.9693 29.3689 14.8271L22.2561 7.73259L10.9821 18.9827ZM22.2561 15.7701C20.9532 15.7694 19.7782 16.5517 19.2791 17.7521C18.78 18.9525 19.0552 20.3345 19.9762 21.2537C20.8972 22.1728 22.2827 22.448 23.4865 21.9509C24.6903 21.4537 25.4752 20.2822 25.4752 18.9827C25.4757 18.1307 25.1368 17.3133 24.5331 16.7105C23.9294 16.1077 23.1103 15.7688 22.2561 15.7684V15.7701Z" fill="url(#paint6_linear_19_234)"/>
<defs>
<linearGradient id="paint0_linear_19_234" x1="6.29849" y1="0.0044029" x2="141.868" y2="77.8883" gradientUnits="userSpaceOnUse">
<stop stop-color="#9CABF6"/>
<stop offset="0.301576" stop-color="#3996F4"/>
<stop offset="0.749922" stop-color="#C2A5F8"/>
<stop offset="1" stop-color="#C295F4"/>
</linearGradient>
<linearGradient id="paint1_linear_19_234" x1="6.29849" y1="0.0044029" x2="141.868" y2="77.8883" gradientUnits="userSpaceOnUse">
<stop stop-color="#9CABF6"/>
<stop offset="0.301576" stop-color="#3996F4"/>
<stop offset="0.749922" stop-color="#C2A5F8"/>
<stop offset="1" stop-color="#C295F4"/>
</linearGradient>
<linearGradient id="paint2_linear_19_234" x1="6.29849" y1="0.0044029" x2="141.868" y2="77.8883" gradientUnits="userSpaceOnUse">
<stop stop-color="#9CABF6"/>
<stop offset="0.301576" stop-color="#3996F4"/>
<stop offset="0.749922" stop-color="#C2A5F8"/>
<stop offset="1" stop-color="#C295F4"/>
</linearGradient>
<linearGradient id="paint3_linear_19_234" x1="6.29849" y1="0.0044029" x2="141.868" y2="77.8883" gradientUnits="userSpaceOnUse">
<stop stop-color="#9CABF6"/>
<stop offset="0.301576" stop-color="#3996F4"/>
<stop offset="0.749922" stop-color="#C2A5F8"/>
<stop offset="1" stop-color="#C295F4"/>
</linearGradient>
<linearGradient id="paint4_linear_19_234" x1="6.29849" y1="0.0044029" x2="141.868" y2="77.8883" gradientUnits="userSpaceOnUse">
<stop stop-color="#9CABF6"/>
<stop offset="0.301576" stop-color="#3996F4"/>
<stop offset="0.749922" stop-color="#C2A5F8"/>
<stop offset="1" stop-color="#C295F4"/>
</linearGradient>
<linearGradient id="paint5_linear_19_234" x1="6.29849" y1="0.0044029" x2="141.868" y2="77.8883" gradientUnits="userSpaceOnUse">
<stop stop-color="#9CABF6"/>
<stop offset="0.301576" stop-color="#3996F4"/>
<stop offset="0.749922" stop-color="#C2A5F8"/>
<stop offset="1" stop-color="#C295F4"/>
</linearGradient>
<linearGradient id="paint6_linear_19_234" x1="6.29849" y1="0.0044029" x2="141.868" y2="77.8883" gradientUnits="userSpaceOnUse">
<stop stop-color="#9CABF6"/>
<stop offset="0.301576" stop-color="#3996F4"/>
<stop offset="0.749922" stop-color="#C2A5F8"/>
<stop offset="1" stop-color="#C295F4"/>
</linearGradient>
</defs>
</svg>
