<svg width="222" height="47" viewBox="0 0 222 47" fill="none" xmlns="http://www.w3.org/2000/svg">
<path d="M9.76848 33.7656C7.9109 33.7656 6.09599 33.5634 4.32377 33.159C2.57291 32.7334 1.13165 32.1694 0 31.467L2.43412 25.9761C3.50172 26.5932 4.69743 27.0934 6.02125 27.4765C7.34507 27.8383 8.61551 28.0192 9.83259 28.0192C10.8789 28.0192 11.6261 27.9234 12.0745 27.7318C12.5229 27.519 12.7471 27.2104 12.7471 26.806C12.7471 26.3379 12.4482 25.9867 11.8503 25.7526C11.2739 25.5184 10.313 25.263 8.96782 24.9864C7.23831 24.6246 5.79705 24.2415 4.64405 23.8371C3.49105 23.4114 2.4875 22.7304 1.63342 21.7939C0.779346 20.8362 0.352307 19.5486 0.352307 17.931C0.352307 16.5264 0.747318 15.2494 1.53734 14.1001C2.32736 12.9508 3.50172 12.0463 5.06041 11.3865C6.64046 10.7268 8.55146 10.3969 10.7934 10.3969C12.3308 10.3969 13.8361 10.5672 15.3094 10.9077C16.804 11.2269 18.1171 11.7058 19.2487 12.3442L16.9748 17.8033C14.7755 16.6966 12.6937 16.1433 10.7294 16.1433C8.78633 16.1433 7.81481 16.6115 7.81481 17.548C7.81481 17.9949 8.10307 18.3354 8.67957 18.5695C9.25607 18.7824 10.2063 19.0165 11.53 19.2718C13.2382 19.5912 14.6795 19.9636 15.8539 20.3892C17.0282 20.7936 18.0424 21.4641 18.8965 22.4005C19.7719 23.337 20.2097 24.6139 20.2097 26.2314C20.2097 27.6361 19.8146 28.9131 19.0246 30.0624C18.2345 31.1904 17.0495 32.0949 15.4695 32.7759C13.9108 33.4357 12.0105 33.7656 9.76848 33.7656Z" fill="url(#paint0_linear_19_233)"/>
<path d="M34.4052 15.4729C36.5618 15.4729 38.2913 16.122 39.5938 17.4202C40.9176 18.7185 41.5795 20.6766 41.5795 23.2944V33.2548H34.3412V24.5394C34.3412 22.5388 33.6259 21.5385 32.1954 21.5385C31.3839 21.5385 30.722 21.8259 30.2096 22.4005C29.7185 22.9539 29.473 23.8371 29.473 25.0502V33.2548H22.2346V9.56681H29.473V17.1967C30.8181 16.0475 32.4622 15.4729 34.4052 15.4729Z" fill="url(#paint1_linear_19_233)"/>
<path d="M54.2918 33.574C52.3488 33.574 50.5979 33.1909 49.0392 32.4247C47.5019 31.6373 46.2955 30.5625 45.4201 29.2004C44.5447 27.817 44.107 26.2527 44.107 24.5075C44.107 22.7623 44.5447 21.2086 45.4201 19.8465C46.2955 18.4632 47.5019 17.3883 49.0392 16.6221C50.5979 15.8559 52.3488 15.4729 54.2918 15.4729C56.2562 15.4729 58.0071 15.8559 59.5444 16.6221C61.1031 17.3883 62.3095 18.4632 63.1636 19.8465C64.039 21.2086 64.4767 22.7623 64.4767 24.5075C64.4767 26.2527 64.039 27.817 63.1636 29.2004C62.3095 30.5625 61.1031 31.6373 59.5444 32.4247C58.0071 33.1909 56.2562 33.574 54.2918 33.574ZM54.2918 27.9553C55.1246 27.9553 55.8078 27.6574 56.3416 27.0615C56.8754 26.4442 57.1423 25.593 57.1423 24.5075C57.1423 23.422 56.8754 22.5814 56.3416 21.9855C55.8078 21.3895 55.1246 21.0916 54.2918 21.0916C53.4591 21.0916 52.7758 21.3895 52.2421 21.9855C51.7083 22.5814 51.4413 23.422 51.4413 24.5075C51.4413 25.593 51.7083 26.4442 52.2421 27.0615C52.7758 27.6574 53.4591 27.9553 54.2918 27.9553Z" fill="url(#paint2_linear_19_233)"/>
<path d="M78.4324 15.4729C79.9698 15.4729 81.379 15.8453 82.6601 16.5903C83.9625 17.3139 84.9874 18.3673 85.7348 19.7508C86.5035 21.1341 86.8877 22.7304 86.8877 24.5394C86.8877 26.3485 86.5035 27.9447 85.7348 29.3281C84.9874 30.6903 83.9625 31.7437 82.6601 32.4886C81.379 33.2122 79.9698 33.574 78.4324 33.574C76.4893 33.574 75.0054 33.0739 73.9805 32.0736V39.4482H66.7422V15.7921H73.6282V17.2287C74.6745 16.0581 76.2759 15.4729 78.4324 15.4729ZM76.7029 27.9553C77.5356 27.9553 78.2188 27.6574 78.7527 27.0615C79.2864 26.4655 79.5534 25.6249 79.5534 24.5394C79.5534 23.454 79.2864 22.6133 78.7527 22.0174C78.2188 21.4002 77.5356 21.0916 76.7029 21.0916C75.8701 21.0916 75.1869 21.4002 74.6531 22.0174C74.1193 22.6133 73.8524 23.454 73.8524 24.5394C73.8524 25.6249 74.1193 26.4655 74.6531 27.0615C75.1869 27.6574 75.8701 27.9553 76.7029 27.9553Z" fill="url(#paint3_linear_19_233)"/>
<path d="M100.858 15.4729C102.396 15.4729 103.805 15.8453 105.085 16.5903C106.389 17.3139 107.414 18.3673 108.161 19.7508C108.929 21.1341 109.314 22.7304 109.314 24.5394C109.314 26.3485 108.929 27.9447 108.161 29.3281C107.414 30.6903 106.389 31.7437 105.085 32.4886C103.805 33.2122 102.396 33.574 100.858 33.574C98.9154 33.574 97.4312 33.0739 96.4064 32.0736V39.4482H89.168V15.7921H96.0542V17.2287C97.1001 16.0581 98.702 15.4729 100.858 15.4729ZM99.1287 27.9553C99.9612 27.9553 100.644 27.6574 101.178 27.0615C101.712 26.4655 101.979 25.6249 101.979 24.5394C101.979 23.454 101.712 22.6133 101.178 22.0174C100.644 21.4002 99.9612 21.0916 99.1287 21.0916C98.2962 21.0916 97.613 21.4002 97.0791 22.0174C96.5451 22.6133 96.2782 23.454 96.2782 24.5394C96.2782 25.6249 96.5451 26.4655 97.0791 27.0615C97.613 27.6574 98.2962 27.9553 99.1287 27.9553Z" fill="url(#paint4_linear_19_233)"/>
<path d="M111.594 15.7921H118.832V33.2548H111.594V15.7921ZM115.213 14.3874C113.911 14.3874 112.854 14.0469 112.042 13.3658C111.253 12.6634 110.857 11.7802 110.857 10.7161C110.857 9.65197 111.253 8.77931 112.042 8.09826C112.854 7.39592 113.911 7.04475 115.213 7.04475C116.537 7.04475 117.594 7.37464 118.383 8.03441C119.174 8.69419 119.569 9.54551 119.569 10.5884C119.569 11.6951 119.174 12.6103 118.383 13.3339C117.594 14.0362 116.537 14.3874 115.213 14.3874Z" fill="url(#paint5_linear_19_233)"/>
<path d="M134.211 15.4729C136.367 15.4729 138.097 16.122 139.4 17.4202C140.723 18.7185 141.385 20.6766 141.385 23.2944V33.2548H134.147V24.5394C134.147 22.5388 133.432 21.5385 132.001 21.5385C131.19 21.5385 130.527 21.8259 130.015 22.4005C129.525 22.9539 129.279 23.8371 129.279 25.0503V33.2548H122.041V15.7921H128.926V17.5161C129.61 16.8349 130.4 16.3242 131.297 15.9837C132.193 15.6432 133.165 15.4729 134.211 15.4729Z" fill="url(#paint6_linear_19_233)"/>
<path d="M164.411 15.7921V29.7751C164.411 33.0952 163.482 35.5853 161.625 37.2454C159.788 38.9268 157.162 39.7674 153.746 39.7674C151.994 39.7674 150.361 39.5758 148.845 39.1927C147.329 38.8309 146.038 38.2989 144.97 37.5966L147.404 32.6802C148.087 33.1909 148.951 33.606 149.998 33.9252C151.044 34.2445 152.048 34.4041 153.009 34.4041C154.46 34.4041 155.518 34.0954 156.18 33.4783C156.841 32.8611 157.172 31.9566 157.172 30.7647V30.4455C156.083 31.6798 154.471 32.2971 152.336 32.2971C150.841 32.2971 149.443 31.9566 148.14 31.2755C146.86 30.5731 145.835 29.5835 145.066 28.3065C144.297 27.0082 143.912 25.5291 143.912 23.869C143.912 22.209 144.297 20.7404 145.066 19.4634C145.835 18.1864 146.86 17.2074 148.14 16.5264C149.443 15.8241 150.841 15.4729 152.336 15.4729C154.727 15.4729 156.457 16.239 157.524 17.7714V15.7921H164.411ZM154.257 26.6784C155.112 26.6784 155.816 26.4229 156.371 25.9122C156.948 25.3801 157.236 24.699 157.236 23.869C157.236 23.0389 156.948 22.3686 156.371 21.8578C155.816 21.3469 155.112 21.0916 154.257 21.0916C153.382 21.0916 152.657 21.3469 152.08 21.8578C151.525 22.3686 151.247 23.0389 151.247 23.869C151.247 24.699 151.535 25.3801 152.112 25.9122C152.688 26.4229 153.404 26.6784 154.257 26.6784Z" fill="url(#paint7_linear_19_233)"/>
<path d="M206.717 26.7367C206.346 27.1506 205.872 27.3576 205.294 27.3576C204.716 27.3576 204.242 27.1506 203.871 26.7367C203.499 26.3082 203.315 25.7169 203.315 24.9631C203.315 24.2095 203.499 23.6255 203.871 23.2118C204.242 22.7979 204.716 22.5911 205.294 22.5911C205.872 22.5911 206.346 22.7979 206.717 23.2118C207.088 23.6255 207.273 24.2095 207.273 24.9631C207.273 25.7169 207.088 26.3082 206.717 26.7367Z" fill="url(#paint8_linear_19_233)"/>
<path fill-rule="evenodd" clip-rule="evenodd" d="M198.424 0C185.403 0 174.848 10.5214 174.848 23.5C174.848 36.4786 185.403 47 198.424 47C211.444 47 222 36.4786 222 23.5C222 10.5214 211.444 0 198.424 0ZM185.012 30.4614C185.576 30.9933 186.28 31.2594 187.125 31.2594C187.97 31.2594 188.667 30.9933 189.216 30.4614C189.779 29.9145 190.061 29.2198 190.061 28.3774C190.061 27.5349 189.779 26.8551 189.216 26.3377C188.667 25.8058 187.97 25.5397 187.125 25.5397C186.28 25.5397 185.576 25.8058 185.012 26.3377C184.464 26.8551 184.189 27.5349 184.189 28.3774C184.189 28.7504 184.243 29.0944 184.351 29.4096C184.486 29.8061 184.706 30.1568 185.012 30.4614ZM196.638 31.0377V18.9108H191.612V31.0377H196.638ZM191.923 17.226C192.486 17.6989 193.22 17.9355 194.125 17.9355C195.044 17.9355 195.778 17.6915 196.326 17.2037C196.876 16.7012 197.149 16.0658 197.149 15.2972C197.149 14.573 196.876 13.9817 196.326 13.5236C195.778 13.0654 195.044 12.8364 194.125 12.8364C193.22 12.8364 192.486 13.0802 191.923 13.5679C191.375 14.0408 191.1 14.6468 191.1 15.386C191.1 15.8878 191.226 16.3318 191.48 16.7179C191.599 16.9001 191.747 17.0694 191.923 17.226ZM201.646 30.4614C202.729 30.9933 203.944 31.2594 205.294 31.2594C206.658 31.2594 207.874 30.9933 208.942 30.4614C210.024 29.9145 210.862 29.168 211.455 28.2222C212.063 27.2615 212.367 26.1751 212.367 24.9631C212.367 24.3182 212.281 23.7106 212.109 23.1411C211.957 22.6405 211.739 22.1689 211.455 21.7264C210.862 20.7658 210.024 20.0193 208.942 19.4874C207.874 18.9552 206.658 18.6891 205.294 18.6891C203.944 18.6891 202.729 18.9552 201.646 19.4874C200.579 20.0193 199.741 20.7658 199.133 21.7264C198.524 22.6723 198.221 23.7514 198.221 24.9631C198.221 26.1751 198.524 27.2615 199.133 28.2222C199.741 29.168 200.579 29.9145 201.646 30.4614Z" fill="url(#paint9_linear_19_233)"/>
<defs>
<linearGradient id="paint0_linear_19_233" x1="8.48407" y1="1.03686e-05" x2="183.169" y2="109.147" gradientUnits="userSpaceOnUse">
<stop stop-color="#9CABF6"/>
<stop offset="0.301576" stop-color="#3996F4"/>
<stop offset="0.749922" stop-color="#C2A5F8"/>
<stop offset="1" stop-color="#C295F4"/>
</linearGradient>
<linearGradient id="paint1_linear_19_233" x1="8.48407" y1="1.03686e-05" x2="183.169" y2="109.147" gradientUnits="userSpaceOnUse">
<stop stop-color="#9CABF6"/>
<stop offset="0.301576" stop-color="#3996F4"/>
<stop offset="0.749922" stop-color="#C2A5F8"/>
<stop offset="1" stop-color="#C295F4"/>
</linearGradient>
<linearGradient id="paint2_linear_19_233" x1="8.48407" y1="1.03686e-05" x2="183.169" y2="109.147" gradientUnits="userSpaceOnUse">
<stop stop-color="#9CABF6"/>
<stop offset="0.301576" stop-color="#3996F4"/>
<stop offset="0.749922" stop-color="#C2A5F8"/>
<stop offset="1" stop-color="#C295F4"/>
</linearGradient>
<linearGradient id="paint3_linear_19_233" x1="8.48407" y1="1.03686e-05" x2="183.169" y2="109.147" gradientUnits="userSpaceOnUse">
<stop stop-color="#9CABF6"/>
<stop offset="0.301576" stop-color="#3996F4"/>
<stop offset="0.749922" stop-color="#C2A5F8"/>
<stop offset="1" stop-color="#C295F4"/>
</linearGradient>
<linearGradient id="paint4_linear_19_233" x1="8.48407" y1="1.03686e-05" x2="183.169" y2="109.147" gradientUnits="userSpaceOnUse">
<stop stop-color="#9CABF6"/>
<stop offset="0.301576" stop-color="#3996F4"/>
<stop offset="0.749922" stop-color="#C2A5F8"/>
<stop offset="1" stop-color="#C295F4"/>
</linearGradient>
<linearGradient id="paint5_linear_19_233" x1="8.48407" y1="1.03686e-05" x2="183.169" y2="109.147" gradientUnits="userSpaceOnUse">
<stop stop-color="#9CABF6"/>
<stop offset="0.301576" stop-color="#3996F4"/>
<stop offset="0.749922" stop-color="#C2A5F8"/>
<stop offset="1" stop-color="#C295F4"/>
</linearGradient>
<linearGradient id="paint6_linear_19_233" x1="8.48407" y1="1.03686e-05" x2="183.169" y2="109.147" gradientUnits="userSpaceOnUse">
<stop stop-color="#9CABF6"/>
<stop offset="0.301576" stop-color="#3996F4"/>
<stop offset="0.749922" stop-color="#C2A5F8"/>
<stop offset="1" stop-color="#C295F4"/>
</linearGradient>
<linearGradient id="paint7_linear_19_233" x1="8.48407" y1="1.03686e-05" x2="183.169" y2="109.147" gradientUnits="userSpaceOnUse">
<stop stop-color="#9CABF6"/>
<stop offset="0.301576" stop-color="#3996F4"/>
<stop offset="0.749922" stop-color="#C2A5F8"/>
<stop offset="1" stop-color="#C295F4"/>
</linearGradient>
<linearGradient id="paint8_linear_19_233" x1="8.48407" y1="1.03686e-05" x2="183.169" y2="109.147" gradientUnits="userSpaceOnUse">
<stop stop-color="#9CABF6"/>
<stop offset="0.301576" stop-color="#3996F4"/>
<stop offset="0.749922" stop-color="#C2A5F8"/>
<stop offset="1" stop-color="#C295F4"/>
</linearGradient>
<linearGradient id="paint9_linear_19_233" x1="8.48407" y1="1.03686e-05" x2="183.169" y2="109.147" gradientUnits="userSpaceOnUse">
<stop stop-color="#9CABF6"/>
<stop offset="0.301576" stop-color="#3996F4"/>
<stop offset="0.749922" stop-color="#C2A5F8"/>
<stop offset="1" stop-color="#C295F4"/>
</linearGradient>
</defs>
</svg>
