<svg width="23" height="19" viewBox="0 0 23 19" fill="none" xmlns="http://www.w3.org/2000/svg">
<path d="M14.9859 0.546875C14.6219 0.182875 14.144 0 13.6661 0C13.1883 0 12.7104 0.182875 12.3463 0.546875C11.6165 1.27674 11.6165 2.45659 12.3463 3.18646L16.6266 7.46667H2.46614C1.43574 7.46667 0.599476 8.30107 0.599476 9.33333C0.599476 10.3656 1.43574 11.2 2.46614 11.2H16.6266L12.3463 15.4802C11.6165 16.2101 11.6165 17.3899 12.3463 18.1198C13.0762 18.8497 14.2561 18.8497 14.9859 18.1198L22.4526 10.6531C23.1825 9.92326 23.1825 8.74341 22.4526 8.01354L14.9859 0.546875Z" fill="#B4A4F8"/>
</svg>
